<?xml version="1.0" standalone="no"?>
<!DOCTYPE svg PUBLIC "-//W3C//DTD SVG 1.1//EN" "http://www.w3.org/Graphics/SVG/1.1/DTD/svg11.dtd" >
<svg>
<metadata>
Created by FontForge 20110222 at Wed Dec 17 18:32:31 2014
 By deploy user
Copyright (c) 2014 by Fontfabric LLC. All rights reserved.
</metadata>
<defs>
<font id="IntroCondBlackFree" horiz-adv-x="701" >
  <font-face 
    font-family="Intro Cond Black Free"
    font-weight="400"
    font-stretch="condensed"
    units-per-em="1000"
    panose-1="0 0 5 0 0 0 0 0 0 0"
    ascent="750"
    descent="-250"
    x-height="700"
    cap-height="700"
    bbox="-10 -278 1107 1031"
    underline-thickness="50"
    underline-position="-50"
    unicode-range="U+0020-2212"
  />
<missing-glyph horiz-adv-x="192" 
 />
    <glyph glyph-name=".notdef" horiz-adv-x="192" 
 />
    <glyph glyph-name=".null" horiz-adv-x="0" 
 />
    <glyph glyph-name="nonmarkingreturn" horiz-adv-x="333" 
 />
    <glyph glyph-name="space" unicode=" " horiz-adv-x="193" 
 />
    <glyph glyph-name="exclam" unicode="!" horiz-adv-x="278" 
d="M232 702l-10 -508h-164l-14 508h188zM139 -15q-40 0 -65.5 25t-25.5 66q0 40 26.5 66t64.5 26q40 0 66.5 -25t26.5 -67q0 -41 -26 -66t-67 -25z" />
    <glyph glyph-name="quotedbl" unicode="&#x22;" 
d="M449 489l-96 -115l-99 115l-26 -27l100 -116l-98 -113l26 -27l95 113l97 -112l26 28l-96 112l98 115zM50 347q0 125 88.5 214t213.5 89t214 -89t89 -214t-89 -213.5t-214 -88.5t-213.5 88.5t-88.5 213.5z" />
    <glyph glyph-name="numbersign" unicode="#" 
d="M449 489l-96 -115l-99 115l-26 -27l100 -116l-98 -113l26 -27l95 113l97 -112l26 28l-96 112l98 115zM50 347q0 125 88.5 214t213.5 89t214 -89t89 -214t-89 -213.5t-214 -88.5t-213.5 88.5t-88.5 213.5z" />
    <glyph glyph-name="dollar" unicode="$" 
d="M449 489l-96 -115l-99 115l-26 -27l100 -116l-98 -113l26 -27l95 113l97 -112l26 28l-96 112l98 115zM50 347q0 125 88.5 214t213.5 89t214 -89t89 -214t-89 -213.5t-214 -88.5t-213.5 88.5t-88.5 213.5z" />
    <glyph glyph-name="percent" unicode="%" 
d="M449 489l-96 -115l-99 115l-26 -27l100 -116l-98 -113l26 -27l95 113l97 -112l26 28l-96 112l98 115zM50 347q0 125 88.5 214t213.5 89t214 -89t89 -214t-89 -213.5t-214 -88.5t-213.5 88.5t-88.5 213.5z" />
    <glyph glyph-name="ampersand" unicode="&#x26;" horiz-adv-x="546" 
d="M449 524h-149q0 19 -9.5 31t-25.5 12q-36 0 -36 -55q0 -24 18 -38.5t47 -14.5v-148h-26q-29 0 -47 -23.5t-18 -62.5q0 -37 17.5 -60.5t46.5 -23.5t47 23.5t18 61.5l-1 235h191v-140h-50v-95q0 -106 -57 -171t-150 -65q-104 0 -167.5 63t-63.5 166q0 55 24 102.5t66 75.5
q-55 45 -55 128t54 134t142 51q87 0 137.5 -51t46.5 -135z" />
    <glyph glyph-name="quotesingle" unicode="'" 
d="M449 489l-96 -115l-99 115l-26 -27l100 -116l-98 -113l26 -27l95 113l97 -112l26 28l-96 112l98 115zM50 347q0 125 88.5 214t213.5 89t214 -89t89 -214t-89 -213.5t-214 -88.5t-213.5 88.5t-88.5 213.5z" />
    <glyph glyph-name="parenleft" unicode="(" 
d="M449 489l-96 -115l-99 115l-26 -27l100 -116l-98 -113l26 -27l95 113l97 -112l26 28l-96 112l98 115zM50 347q0 125 88.5 214t213.5 89t214 -89t89 -214t-89 -213.5t-214 -88.5t-213.5 88.5t-88.5 213.5z" />
    <glyph glyph-name="parenright" unicode=")" 
d="M449 489l-96 -115l-99 115l-26 -27l100 -116l-98 -113l26 -27l95 113l97 -112l26 28l-96 112l98 115zM50 347q0 125 88.5 214t213.5 89t214 -89t89 -214t-89 -213.5t-214 -88.5t-213.5 88.5t-88.5 213.5z" />
    <glyph glyph-name="asterisk" unicode="*" 
d="M449 489l-96 -115l-99 115l-26 -27l100 -116l-98 -113l26 -27l95 113l97 -112l26 28l-96 112l98 115zM50 347q0 125 88.5 214t213.5 89t214 -89t89 -214t-89 -213.5t-214 -88.5t-213.5 88.5t-88.5 213.5z" />
    <glyph glyph-name="plus" unicode="+" 
d="M449 489l-96 -115l-99 115l-26 -27l100 -116l-98 -113l26 -27l95 113l97 -112l26 28l-96 112l98 115zM50 347q0 125 88.5 214t213.5 89t214 -89t89 -214t-89 -213.5t-214 -88.5t-213.5 88.5t-88.5 213.5z" />
    <glyph glyph-name="comma" unicode="," horiz-adv-x="258" 
d="M221 73q0 -44 -49 -179h-93l23 91q-29 8 -47.5 31.5t-18.5 56.5q0 42 26.5 67t66.5 25q36 0 64 -25t28 -67z" />
    <glyph glyph-name="hyphen" unicode="-" 
d="M449 489l-96 -115l-99 115l-26 -27l100 -116l-98 -113l26 -27l95 113l97 -112l26 28l-96 112l98 115zM50 347q0 125 88.5 214t213.5 89t214 -89t89 -214t-89 -213.5t-214 -88.5t-213.5 88.5t-88.5 213.5z" />
    <glyph glyph-name="period" unicode="." horiz-adv-x="257" 
d="M129 -18q-40 0 -66.5 24.5t-26.5 66.5q0 41 27 66.5t66 25.5t65.5 -25.5t26.5 -66.5q0 -42 -26 -66.5t-66 -24.5z" />
    <glyph glyph-name="slash" unicode="/" 
d="M449 489l-96 -115l-99 115l-26 -27l100 -116l-98 -113l26 -27l95 113l97 -112l26 28l-96 112l98 115zM50 347q0 125 88.5 214t213.5 89t214 -89t89 -214t-89 -213.5t-214 -88.5t-213.5 88.5t-88.5 213.5z" />
    <glyph glyph-name="zero" unicode="0" horiz-adv-x="538" 
d="M270 710q100 0 161 -65.5t61 -172.5v-241q0 -109 -61 -175t-161 -66q-101 0 -162.5 66t-61.5 175v241q0 107 61.5 172.5t162.5 65.5zM270 150q28 0 45 21.5t17 55.5v243q0 37 -17 59t-45 22q-29 0 -46 -22t-17 -59v-243q0 -35 17.5 -56t45.5 -21z" />
    <glyph glyph-name="one" unicode="1" horiz-adv-x="406" 
d="M51 700h242v-563h90v-137h-344v137h88v423h-76v140z" />
    <glyph glyph-name="two" unicode="2" horiz-adv-x="473" 
d="M227 553q-20 0 -34 -17t-14 -50h-141q-3 106 49.5 165t143.5 59q78 0 132.5 -48.5t63 -123.5t-37.5 -166l-118 -210h156v-162h-395v39l204 356q22 38 31 67.5t7.5 46t-10 27t-18 14t-19.5 3.5z" />
    <glyph glyph-name="three" unicode="3" horiz-adv-x="491" 
d="M31 213h151q-2 -31 13 -50t40 -19t41 23t16 61t-14 61t-35.5 29.5t-47.5 8t-50 -3.5v23l75 206h-166v148h380v-26l-97 -236q117 -36 117 -209q0 -107 -60.5 -173t-160.5 -66q-90 0 -145.5 61.5t-56.5 161.5z" />
    <glyph glyph-name="four" unicode="4" horiz-adv-x="521" 
d="M270 0v131h-253v79l227 490h182v-422h60v-147h-60v-131h-156zM202 271h80v112l9 119h-3z" />
    <glyph glyph-name="five" unicode="5" horiz-adv-x="495" 
d="M195 552v-91q26 2 38 2q227 -5 227 -235q0 -107 -59 -172.5t-155 -65.5q-92 0 -148.5 61.5t-56.5 161.5h150q-1 -29 14.5 -46.5t40.5 -17.5q24 0 38 20t14 59q0 35 -18.5 58t-44.5 32t-62.5 10.5t-63 -1t-55.5 -7.5v380h376v-148h-235z" />
    <glyph glyph-name="six" unicode="6" horiz-adv-x="528" 
d="M420 700l-118 -247q88 7 142.5 -54.5t54.5 -170.5q0 -107 -64.5 -172.5t-169.5 -65.5t-169 65.5t-64 172.5q0 66 43 154l156 318h189zM265 144q28 0 45.5 23t17.5 61q0 88 -63 88t-63 -88q0 -38 17.5 -61t45.5 -23z" />
    <glyph glyph-name="seven" unicode="7" horiz-adv-x="477" 
d="M237 0h-172l182 540h-221v160h448v-26z" />
    <glyph glyph-name="eight" unicode="8" horiz-adv-x="529" 
d="M416 398q79 -62 79 -175q0 -105 -63 -169t-167 -64t-167.5 63.5t-63.5 167.5q0 117 81 178q-44 45 -44 117q0 87 53.5 140.5t140.5 53.5t140.5 -52.5t53.5 -138.5q0 -73 -43 -121zM265 448q20 0 32.5 17.5t12.5 46.5q0 27 -12.5 43t-32.5 16q-21 0 -34 -16.5t-13 -44.5
t13 -45t34 -17zM265 141q28 0 44.5 24t16.5 64q0 41 -16.5 66t-44.5 25t-45 -26t-17 -68q0 -38 17 -61.5t45 -23.5z" />
    <glyph glyph-name="nine" unicode="9" horiz-adv-x="520" 
d="M101 0l128 253q-57 0 -98.5 21.5t-63 57t-31 71.5t-9.5 75q0 104 63.5 168t167.5 64q103 0 166.5 -64t63.5 -168q0 -77 -42 -159l-159 -319h-186zM258 556q-28 0 -44.5 -21.5t-16.5 -56.5q0 -40 16.5 -64t44.5 -24q27 0 43.5 24t16.5 64q0 35 -16.5 56.5t-43.5 21.5z" />
    <glyph glyph-name="colon" unicode=":" 
d="M449 489l-96 -115l-99 115l-26 -27l100 -116l-98 -113l26 -27l95 113l97 -112l26 28l-96 112l98 115zM50 347q0 125 88.5 214t213.5 89t214 -89t89 -214t-89 -213.5t-214 -88.5t-213.5 88.5t-88.5 213.5z" />
    <glyph glyph-name="semicolon" unicode=";" 
d="M449 489l-96 -115l-99 115l-26 -27l100 -116l-98 -113l26 -27l95 113l97 -112l26 28l-96 112l98 115zM50 347q0 125 88.5 214t213.5 89t214 -89t89 -214t-89 -213.5t-214 -88.5t-213.5 88.5t-88.5 213.5z" />
    <glyph glyph-name="less" unicode="&#x3c;" 
d="M449 489l-96 -115l-99 115l-26 -27l100 -116l-98 -113l26 -27l95 113l97 -112l26 28l-96 112l98 115zM50 347q0 125 88.5 214t213.5 89t214 -89t89 -214t-89 -213.5t-214 -88.5t-213.5 88.5t-88.5 213.5z" />
    <glyph glyph-name="equal" unicode="=" 
d="M449 489l-96 -115l-99 115l-26 -27l100 -116l-98 -113l26 -27l95 113l97 -112l26 28l-96 112l98 115zM50 347q0 125 88.5 214t213.5 89t214 -89t89 -214t-89 -213.5t-214 -88.5t-213.5 88.5t-88.5 213.5z" />
    <glyph glyph-name="greater" unicode="&#x3e;" 
d="M449 489l-96 -115l-99 115l-26 -27l100 -116l-98 -113l26 -27l95 113l97 -112l26 28l-96 112l98 115zM50 347q0 125 88.5 214t213.5 89t214 -89t89 -214t-89 -213.5t-214 -88.5t-213.5 88.5t-88.5 213.5z" />
    <glyph glyph-name="question" unicode="?" horiz-adv-x="459" 
d="M304 196h-158q-4 55 9.5 93.5t46.5 83t41 59.5q19 33 22 60q3 26 -10 42.5t-36 16.5q-24 0 -37.5 -20t-11.5 -52h-142q-7 110 55 170.5t149 60.5q80 0 137 -51t57 -147q0 -48 -19 -92t-42 -72t-42 -68.5t-19 -83.5zM227 -10q-42 0 -68 25t-26 66t26 66.5t68 25.5
q41 0 66 -25.5t25 -66.5t-25 -66t-66 -25z" />
    <glyph glyph-name="at" unicode="@" 
d="M449 489l-96 -115l-99 115l-26 -27l100 -116l-98 -113l26 -27l95 113l97 -112l26 28l-96 112l98 115zM50 347q0 125 88.5 214t213.5 89t214 -89t89 -214t-89 -213.5t-214 -88.5t-213.5 88.5t-88.5 213.5z" />
    <glyph glyph-name="A" unicode="A" horiz-adv-x="614" 
d="M617 0h-179l-31 87h-199l-31 -87h-181v11l269 699h86l266 -699v-11zM257 229h101q-34 105 -51 199q-20 -99 -50 -199z" />
    <glyph glyph-name="B" unicode="B" horiz-adv-x="580" 
d="M525 500q0 -37 -15.5 -74.5t-48.5 -58.5q87 -59 87 -162q0 -93 -57 -149t-152 -56h-278v700h256q94 0 151 -54.5t57 -145.5zM231 425h71q23 0 37 16t15 41q1 28 -13.5 45.5t-38.5 17.5h-71v-120zM231 157h94q22 0 37 16.5t15 43.5q0 28 -15 46t-37 18h-94v-124z" />
    <glyph glyph-name="C" unicode="C" horiz-adv-x="645" 
d="M31 349q0 163 83.5 262t220.5 99q103 0 186 -68.5t97 -199.5h-166q-26 103 -117 103q-59 0 -95.5 -53.5t-36.5 -141.5q0 -86 36.5 -139t96.5 -53q46 0 77 28t40 83h167q-10 -95 -55 -159.5t-103.5 -91.5t-126.5 -27q-137 0 -220.5 98.5t-83.5 259.5z" />
    <glyph glyph-name="D" unicode="D" horiz-adv-x="618" 
d="M61 699h231q132 0 213 -95t81 -251q2 -159 -79 -256t-215 -97h-231v699zM234 165h56q55 0 88.5 51t33.5 135q0 83 -33.5 133.5t-88.5 50.5h-56v-370z" />
    <glyph glyph-name="E" unicode="E" horiz-adv-x="485" 
d="M233 541v-100h186v-160h-186v-114h212v-167h-384v700h376v-159h-204z" />
    <glyph glyph-name="F" unicode="F" horiz-adv-x="466" 
d="M234 226v-226h-173v700h376v-159h-203v-155h177v-160h-177z" />
    <glyph glyph-name="G" unicode="G" horiz-adv-x="647" 
d="M31 349q0 161 87 261t221 100q62 0 117 -23.5t99 -79.5t58 -138h-168q-25 77 -106 77q-64 0 -98.5 -53t-34.5 -143q0 -86 36.5 -139t96.5 -53q84 0 106 85h-106v154h281q6 -85 -7 -157.5t-45.5 -128.5t-91 -88t-137.5 -32q-139 0 -223.5 98.5t-84.5 259.5z" />
    <glyph glyph-name="H" unicode="H" horiz-adv-x="626" 
d="M392 280h-158v-280h-173v700h173v-253h158v253h173v-700h-173v280z" />
    <glyph glyph-name="I" unicode="I" horiz-adv-x="392" 
d="M353 0h-314v148h70v404h-63v148h300v-148h-64v-404h71v-148z" />
    <glyph glyph-name="J" unicode="J" horiz-adv-x="531" 
d="M475 700v-469q0 -110 -67.5 -175.5t-163.5 -65.5q-97 0 -162 65t-65 176v91h161v-88q0 -40 18 -61t47 -21q27 0 43 21t16 61v311h-85v155h258z" />
    <glyph glyph-name="K" unicode="K" horiz-adv-x="622" 
d="M233 700v-274q60 0 77 11t26 39t24 103q14 72 68 108t154 12v-123q-52 5 -64 -50q-29 -128 -71 -186q9 -18 69 -135t93 -178v-27h-196l-118 270q-14 -3 -62 -3v-267h-173v700h173z" />
    <glyph glyph-name="L" unicode="L" horiz-adv-x="440" 
d="M428 164v-164h-367v700h173v-536h194z" />
    <glyph glyph-name="M" unicode="M" horiz-adv-x="712" 
d="M651 704v-704h-173v317l-113 -150h-19l-112 150v-317h-173v704h61l234 -303l234 303h61z" />
    <glyph glyph-name="N" unicode="N" horiz-adv-x="642" 
d="M233 0h-173v706h54l295 -340v334h173v-705h-50l-299 346v-341z" />
    <glyph glyph-name="O" unicode="O" horiz-adv-x="674" 
d="M643 350q0 -162 -84 -261t-221 -99q-138 0 -222.5 99t-84.5 261t84.5 261t222.5 99q137 0 221 -99t84 -261zM203 350q0 -84 37 -136.5t98 -52.5q59 0 95 52.5t36 136.5t-36 136t-95 52q-61 0 -98 -52t-37 -136z" />
    <glyph glyph-name="P" unicode="P" horiz-adv-x="562" 
d="M61 700h248q109 0 173.5 -72t60.5 -190q0 -115 -64 -183.5t-170 -68.5h-75v-185h-173v699zM231 341h78q31 0 50 28t19 74q0 44 -19 71.5t-50 27.5h-78v-201z" />
    <glyph glyph-name="Q" unicode="Q" horiz-adv-x="680" 
d="M678 -8h-160l-21 42q-71 -44 -159 -44q-138 0 -222.5 99t-84.5 261t84.5 261t222.5 99q137 0 221 -99t84 -261q0 -115 -45 -202l80 -150v-6zM338 161q59 0 95 52.5t36 136.5t-36 136t-95 52q-61 0 -98 -52t-37 -136t37 -136.5t98 -52.5z" />
    <glyph glyph-name="R" unicode="R" horiz-adv-x="596" 
d="M579 1h-189l-90 219h-66v-219h-173v699h247q106 0 171 -68t65 -179q-2 -128 -84 -189l119 -254v-9zM231 369h76q32 0 51 24t19 64q0 38 -19.5 61.5t-50.5 23.5h-76v-173z" />
    <glyph glyph-name="S" unicode="S" horiz-adv-x="553" 
d="M33 221h164q-1 -32 21 -52.5t58 -20.5q35 0 56 16.5t21 46.5q0 16 -7.5 28t-16 18t-25 10.5t-24.5 5.5t-24 2q-92 7 -155 59t-63 154t64 162t170 60t169.5 -63t60.5 -166h-162q2 32 -16 52t-49 20t-49 -17t-18 -47q0 -50 77 -60q54 -5 92 -16t74 -34.5t54.5 -66
t18.5 -103.5q0 -100 -67.5 -159.5t-178.5 -59.5q-113 0 -180.5 63.5t-64.5 167.5z" />
    <glyph glyph-name="T" unicode="T" horiz-adv-x="473" 
d="M15 700h443v-160h-137v-540h-168v540h-138v160z" />
    <glyph glyph-name="U" unicode="U" horiz-adv-x="601" 
d="M301 -9q-110 0 -177.5 67t-67.5 177v465h173v-461q0 -39 20 -63t53 -24q32 0 51.5 24t19.5 63v461h172v-465q0 -109 -67.5 -176.5t-176.5 -67.5z" />
    <glyph glyph-name="V" unicode="V" horiz-adv-x="592" 
d="M296 306h3q12 87 40 186l68 208h188v-8l-262 -702h-72l-265 702v8h189l71 -208q30 -110 40 -186z" />
    <glyph glyph-name="W" unicode="W" horiz-adv-x="868" 
d="M590 305h2q10 80 37 204l54 191h180v-7l-203 -700h-117l-107 320h-3l-102 -320h-122l-203 699v8h180l55 -191q29 -120 40 -204h2l101 383h112z" />
    <glyph glyph-name="X" unicode="X" horiz-adv-x="588" 
d="M292 503h2q3 10 8 27.5t9.5 30t10.5 24.5l57 115h186v-6l-165 -323l188 -366v-5h-198l-61 130q-18 45 -34 108h-3q-20 -74 -37 -108l-59 -130h-196v5l188 366l-166 323v6h185l57 -115q11 -24 28 -82z" />
    <glyph glyph-name="Y" unicode="Y" horiz-adv-x="563" 
d="M280 438h2q19 78 38 123l60 139h183v-10l-195 -423v-267h-173v267l-197 423v10h185l59 -139q14 -34 38 -123z" />
    <glyph glyph-name="Z" unicode="Z" horiz-adv-x="522" 
d="M490 673l-220 -510h222v-163h-473v26l219 515h-199v159h451v-27z" />
    <glyph glyph-name="bracketleft" unicode="[" 
d="M449 489l-96 -115l-99 115l-26 -27l100 -116l-98 -113l26 -27l95 113l97 -112l26 28l-96 112l98 115zM50 347q0 125 88.5 214t213.5 89t214 -89t89 -214t-89 -213.5t-214 -88.5t-213.5 88.5t-88.5 213.5z" />
    <glyph glyph-name="backslash" unicode="\" 
d="M449 489l-96 -115l-99 115l-26 -27l100 -116l-98 -113l26 -27l95 113l97 -112l26 28l-96 112l98 115zM50 347q0 125 88.5 214t213.5 89t214 -89t89 -214t-89 -213.5t-214 -88.5t-213.5 88.5t-88.5 213.5z" />
    <glyph glyph-name="bracketright" unicode="]" 
d="M449 489l-96 -115l-99 115l-26 -27l100 -116l-98 -113l26 -27l95 113l97 -112l26 28l-96 112l98 115zM50 347q0 125 88.5 214t213.5 89t214 -89t89 -214t-89 -213.5t-214 -88.5t-213.5 88.5t-88.5 213.5z" />
    <glyph glyph-name="asciicircum" unicode="^" 
d="M449 489l-96 -115l-99 115l-26 -27l100 -116l-98 -113l26 -27l95 113l97 -112l26 28l-96 112l98 115zM50 347q0 125 88.5 214t213.5 89t214 -89t89 -214t-89 -213.5t-214 -88.5t-213.5 88.5t-88.5 213.5z" />
    <glyph glyph-name="underscore" unicode="_" 
d="M449 489l-96 -115l-99 115l-26 -27l100 -116l-98 -113l26 -27l95 113l97 -112l26 28l-96 112l98 115zM50 347q0 125 88.5 214t213.5 89t214 -89t89 -214t-89 -213.5t-214 -88.5t-213.5 88.5t-88.5 213.5z" />
    <glyph glyph-name="grave" unicode="`" horiz-adv-x="285" 
d="M37 652v15l149 56l73 -181v-16h-130z" />
    <glyph glyph-name="a" unicode="a" horiz-adv-x="614" 
d="M617 0h-179l-31 87h-199l-31 -87h-181v11l269 699h86l266 -699v-11zM257 229h101q-34 105 -51 199q-20 -99 -50 -199z" />
    <glyph glyph-name="b" unicode="b" horiz-adv-x="580" 
d="M525 500q0 -37 -15.5 -74.5t-48.5 -58.5q87 -59 87 -162q0 -93 -57 -149t-152 -56h-278v700h256q94 0 151 -54.5t57 -145.5zM231 425h71q23 0 37 16t15 41q1 28 -13.5 45.5t-38.5 17.5h-71v-120zM231 157h94q22 0 37 16.5t15 43.5q0 28 -15 46t-37 18h-94v-124z" />
    <glyph glyph-name="c" unicode="c" horiz-adv-x="645" 
d="M31 349q0 163 83.5 262t220.5 99q103 0 186 -68.5t97 -199.5h-166q-26 103 -117 103q-59 0 -95.5 -53.5t-36.5 -141.5q0 -86 36.5 -139t96.5 -53q46 0 77 28t40 83h167q-10 -95 -55 -159.5t-103.5 -91.5t-126.5 -27q-137 0 -220.5 98.5t-83.5 259.5z" />
    <glyph glyph-name="d" unicode="d" horiz-adv-x="618" 
d="M61 699h231q132 0 213 -95t81 -251q2 -159 -79 -256t-215 -97h-231v699zM234 165h56q55 0 88.5 51t33.5 135q0 83 -33.5 133.5t-88.5 50.5h-56v-370z" />
    <glyph glyph-name="e" unicode="e" horiz-adv-x="485" 
d="M233 541v-100h186v-160h-186v-114h212v-167h-384v700h376v-159h-204z" />
    <glyph glyph-name="f" unicode="f" horiz-adv-x="466" 
d="M234 226v-226h-173v700h376v-159h-203v-155h177v-160h-177z" />
    <glyph glyph-name="g" unicode="g" horiz-adv-x="647" 
d="M31 349q0 161 87 261t221 100q62 0 117 -23.5t99 -79.5t58 -138h-168q-25 77 -106 77q-64 0 -98.5 -53t-34.5 -143q0 -86 36.5 -139t96.5 -53q84 0 106 85h-106v154h281q6 -85 -7 -157.5t-45.5 -128.5t-91 -88t-137.5 -32q-139 0 -223.5 98.5t-84.5 259.5z" />
    <glyph glyph-name="h" unicode="h" horiz-adv-x="626" 
d="M392 280h-158v-280h-173v700h173v-253h158v253h173v-700h-173v280z" />
    <glyph glyph-name="i" unicode="i" horiz-adv-x="392" 
d="M353 0h-314v148h70v404h-63v148h300v-148h-64v-404h71v-148z" />
    <glyph glyph-name="j" unicode="j" horiz-adv-x="531" 
d="M475 700v-469q0 -110 -67.5 -175.5t-163.5 -65.5q-97 0 -162 65t-65 176v91h161v-88q0 -40 18 -61t47 -21q27 0 43 21t16 61v311h-85v155h258z" />
    <glyph glyph-name="k" unicode="k" horiz-adv-x="622" 
d="M233 700v-274q60 0 77 11t26 39t24 103q14 72 68 108t154 12v-123q-52 5 -64 -50q-29 -128 -71 -186q9 -18 69 -135t93 -178v-27h-196l-118 270q-14 -3 -62 -3v-267h-173v700h173z" />
    <glyph glyph-name="l" unicode="l" horiz-adv-x="440" 
d="M428 164v-164h-367v700h173v-536h194z" />
    <glyph glyph-name="m" unicode="m" horiz-adv-x="712" 
d="M651 704v-704h-173v317l-113 -150h-19l-112 150v-317h-173v704h61l234 -303l234 303h61z" />
    <glyph glyph-name="n" unicode="n" horiz-adv-x="642" 
d="M233 0h-173v706h54l295 -340v334h173v-705h-50l-299 346v-341z" />
    <glyph glyph-name="o" unicode="o" horiz-adv-x="674" 
d="M643 350q0 -162 -84 -261t-221 -99q-138 0 -222.5 99t-84.5 261t84.5 261t222.5 99q137 0 221 -99t84 -261zM203 350q0 -84 37 -136.5t98 -52.5q59 0 95 52.5t36 136.5t-36 136t-95 52q-61 0 -98 -52t-37 -136z" />
    <glyph glyph-name="p" unicode="p" horiz-adv-x="562" 
d="M61 700h248q109 0 173.5 -72t60.5 -190q0 -115 -64 -183.5t-170 -68.5h-75v-185h-173v699zM231 341h78q31 0 50 28t19 74q0 44 -19 71.5t-50 27.5h-78v-201z" />
    <glyph glyph-name="q" unicode="q" horiz-adv-x="698" 
d="M678 -8h-160l-21 42q-71 -44 -159 -44q-138 0 -222.5 99t-84.5 261t84.5 261t222.5 99q137 0 221 -99t84 -261q0 -115 -45 -202l80 -150v-6zM338 161q59 0 95 52.5t36 136.5t-36 136t-95 52q-61 0 -98 -52t-37 -136t37 -136.5t98 -52.5z" />
    <glyph glyph-name="r" unicode="r" horiz-adv-x="596" 
d="M579 1h-189l-90 219h-66v-219h-173v699h247q106 0 171 -68t65 -179q-2 -128 -84 -189l119 -254v-9zM231 369h76q32 0 51 24t19 64q0 38 -19.5 61.5t-50.5 23.5h-76v-173z" />
    <glyph glyph-name="s" unicode="s" horiz-adv-x="553" 
d="M33 221h164q-1 -32 21 -52.5t58 -20.5q35 0 56 16.5t21 46.5q0 16 -7.5 28t-16 18t-25 10.5t-24.5 5.5t-24 2q-92 7 -155 59t-63 154t64 162t170 60t169.5 -63t60.5 -166h-162q2 32 -16 52t-49 20t-49 -17t-18 -47q0 -50 77 -60q54 -5 92 -16t74 -34.5t54.5 -66
t18.5 -103.5q0 -100 -67.5 -159.5t-178.5 -59.5q-113 0 -180.5 63.5t-64.5 167.5z" />
    <glyph glyph-name="t" unicode="t" horiz-adv-x="473" 
d="M15 700h443v-160h-137v-540h-168v540h-138v160z" />
    <glyph glyph-name="u" unicode="u" horiz-adv-x="601" 
d="M301 -9q-110 0 -177.5 67t-67.5 177v465h173v-461q0 -39 20 -63t53 -24q32 0 51.5 24t19.5 63v461h172v-465q0 -109 -67.5 -176.5t-176.5 -67.5z" />
    <glyph glyph-name="v" unicode="v" horiz-adv-x="592" 
d="M296 306h3q12 87 40 186l68 208h188v-8l-262 -702h-72l-265 702v8h189l71 -208q30 -110 40 -186z" />
    <glyph glyph-name="w" unicode="w" horiz-adv-x="868" 
d="M590 305h2q10 80 37 204l54 191h180v-7l-203 -700h-117l-107 320h-3l-102 -320h-122l-203 699v8h180l55 -191q29 -120 40 -204h2l101 383h112z" />
    <glyph glyph-name="x" unicode="x" horiz-adv-x="588" 
d="M292 503h2q3 10 8 27.5t9.5 30t10.5 24.5l57 115h186v-6l-165 -323l188 -366v-5h-198l-61 130q-18 45 -34 108h-3q-20 -74 -37 -108l-59 -130h-196v5l188 366l-166 323v6h185l57 -115q11 -24 28 -82z" />
    <glyph glyph-name="y" unicode="y" horiz-adv-x="563" 
d="M280 438h2q19 78 38 123l60 139h183v-10l-195 -423v-267h-173v267l-197 423v10h185l59 -139q14 -34 38 -123z" />
    <glyph glyph-name="z" unicode="z" horiz-adv-x="522" 
d="M490 673l-220 -510h222v-163h-473v26l219 515h-199v159h451v-27z" />
    <glyph glyph-name="braceleft" unicode="{" 
d="M449 489l-96 -115l-99 115l-26 -27l100 -116l-98 -113l26 -27l95 113l97 -112l26 28l-96 112l98 115zM50 347q0 125 88.5 214t213.5 89t214 -89t89 -214t-89 -213.5t-214 -88.5t-213.5 88.5t-88.5 213.5z" />
    <glyph glyph-name="bar" unicode="|" 
d="M449 489l-96 -115l-99 115l-26 -27l100 -116l-98 -113l26 -27l95 113l97 -112l26 28l-96 112l98 115zM50 347q0 125 88.5 214t213.5 89t214 -89t89 -214t-89 -213.5t-214 -88.5t-213.5 88.5t-88.5 213.5z" />
    <glyph glyph-name="braceright" unicode="}" 
d="M449 489l-96 -115l-99 115l-26 -27l100 -116l-98 -113l26 -27l95 113l97 -112l26 28l-96 112l98 115zM50 347q0 125 88.5 214t213.5 89t214 -89t89 -214t-89 -213.5t-214 -88.5t-213.5 88.5t-88.5 213.5z" />
    <glyph glyph-name="asciitilde" unicode="~" 
d="M449 489l-96 -115l-99 115l-26 -27l100 -116l-98 -113l26 -27l95 113l97 -112l26 28l-96 112l98 115zM50 347q0 125 88.5 214t213.5 89t214 -89t89 -214t-89 -213.5t-214 -88.5t-213.5 88.5t-88.5 213.5z" />
    <glyph glyph-name="exclamdown" unicode="&#xa1;" 
d="M449 489l-96 -115l-99 115l-26 -27l100 -116l-98 -113l26 -27l95 113l97 -112l26 28l-96 112l98 115zM50 347q0 125 88.5 214t213.5 89t214 -89t89 -214t-89 -213.5t-214 -88.5t-213.5 88.5t-88.5 213.5z" />
    <glyph glyph-name="cent" unicode="&#xa2;" 
d="M449 489l-96 -115l-99 115l-26 -27l100 -116l-98 -113l26 -27l95 113l97 -112l26 28l-96 112l98 115zM50 347q0 125 88.5 214t213.5 89t214 -89t89 -214t-89 -213.5t-214 -88.5t-213.5 88.5t-88.5 213.5z" />
    <glyph glyph-name="sterling" unicode="&#xa3;" 
d="M449 489l-96 -115l-99 115l-26 -27l100 -116l-98 -113l26 -27l95 113l97 -112l26 28l-96 112l98 115zM50 347q0 125 88.5 214t213.5 89t214 -89t89 -214t-89 -213.5t-214 -88.5t-213.5 88.5t-88.5 213.5z" />
    <glyph glyph-name="currency" unicode="&#xa4;" 
d="M449 489l-96 -115l-99 115l-26 -27l100 -116l-98 -113l26 -27l95 113l97 -112l26 28l-96 112l98 115zM50 347q0 125 88.5 214t213.5 89t214 -89t89 -214t-89 -213.5t-214 -88.5t-213.5 88.5t-88.5 213.5z" />
    <glyph glyph-name="yen" unicode="&#xa5;" 
d="M449 489l-96 -115l-99 115l-26 -27l100 -116l-98 -113l26 -27l95 113l97 -112l26 28l-96 112l98 115zM50 347q0 125 88.5 214t213.5 89t214 -89t89 -214t-89 -213.5t-214 -88.5t-213.5 88.5t-88.5 213.5z" />
    <glyph glyph-name="brokenbar" unicode="&#xa6;" 
d="M449 489l-96 -115l-99 115l-26 -27l100 -116l-98 -113l26 -27l95 113l97 -112l26 28l-96 112l98 115zM50 347q0 125 88.5 214t213.5 89t214 -89t89 -214t-89 -213.5t-214 -88.5t-213.5 88.5t-88.5 213.5z" />
    <glyph glyph-name="section" unicode="&#xa7;" 
d="M449 489l-96 -115l-99 115l-26 -27l100 -116l-98 -113l26 -27l95 113l97 -112l26 28l-96 112l98 115zM50 347q0 125 88.5 214t213.5 89t214 -89t89 -214t-89 -213.5t-214 -88.5t-213.5 88.5t-88.5 213.5z" />
    <glyph glyph-name="dieresis" unicode="&#xa8;" horiz-adv-x="491" 
d="M127 543q-36 0 -62 22.5t-26 62.5t25 63t63 23q36 0 61.5 -23.5t25.5 -62.5q0 -38 -25.5 -61.5t-61.5 -23.5zM361 543q-34 0 -61 23t-27 62t25.5 62.5t62.5 23.5q36 0 61.5 -23.5t25.5 -62.5q0 -38 -25 -61.5t-62 -23.5z" />
    <glyph glyph-name="copyright" unicode="&#xa9;" 
d="M449 489l-96 -115l-99 115l-26 -27l100 -116l-98 -113l26 -27l95 113l97 -112l26 28l-96 112l98 115zM50 347q0 125 88.5 214t213.5 89t214 -89t89 -214t-89 -213.5t-214 -88.5t-213.5 88.5t-88.5 213.5z" />
    <glyph glyph-name="ordfeminine" unicode="&#xaa;" 
d="M449 489l-96 -115l-99 115l-26 -27l100 -116l-98 -113l26 -27l95 113l97 -112l26 28l-96 112l98 115zM50 347q0 125 88.5 214t213.5 89t214 -89t89 -214t-89 -213.5t-214 -88.5t-213.5 88.5t-88.5 213.5z" />
    <glyph glyph-name="guillemotleft" unicode="&#xab;" 
d="M449 489l-96 -115l-99 115l-26 -27l100 -116l-98 -113l26 -27l95 113l97 -112l26 28l-96 112l98 115zM50 347q0 125 88.5 214t213.5 89t214 -89t89 -214t-89 -213.5t-214 -88.5t-213.5 88.5t-88.5 213.5z" />
    <glyph glyph-name="logicalnot" unicode="&#xac;" 
d="M449 489l-96 -115l-99 115l-26 -27l100 -116l-98 -113l26 -27l95 113l97 -112l26 28l-96 112l98 115zM50 347q0 125 88.5 214t213.5 89t214 -89t89 -214t-89 -213.5t-214 -88.5t-213.5 88.5t-88.5 213.5z" />
    <glyph glyph-name="registered" unicode="&#xae;" 
d="M449 489l-96 -115l-99 115l-26 -27l100 -116l-98 -113l26 -27l95 113l97 -112l26 28l-96 112l98 115zM50 347q0 125 88.5 214t213.5 89t214 -89t89 -214t-89 -213.5t-214 -88.5t-213.5 88.5t-88.5 213.5z" />
    <glyph glyph-name="macron" unicode="&#xaf;" horiz-adv-x="424" 
d="M357 699v-135h-289v135h289z" />
    <glyph glyph-name="degree" unicode="&#xb0;" 
d="M449 489l-96 -115l-99 115l-26 -27l100 -116l-98 -113l26 -27l95 113l97 -112l26 28l-96 112l98 115zM50 347q0 125 88.5 214t213.5 89t214 -89t89 -214t-89 -213.5t-214 -88.5t-213.5 88.5t-88.5 213.5z" />
    <glyph glyph-name="plusminus" unicode="&#xb1;" 
d="M449 489l-96 -115l-99 115l-26 -27l100 -116l-98 -113l26 -27l95 113l97 -112l26 28l-96 112l98 115zM50 347q0 125 88.5 214t213.5 89t214 -89t89 -214t-89 -213.5t-214 -88.5t-213.5 88.5t-88.5 213.5z" />
    <glyph glyph-name="twosuperior" unicode="&#xb2;" 
d="M449 489l-96 -115l-99 115l-26 -27l100 -116l-98 -113l26 -27l95 113l97 -112l26 28l-96 112l98 115zM50 347q0 125 88.5 214t213.5 89t214 -89t89 -214t-89 -213.5t-214 -88.5t-213.5 88.5t-88.5 213.5z" />
    <glyph glyph-name="threesuperior" unicode="&#xb3;" 
d="M449 489l-96 -115l-99 115l-26 -27l100 -116l-98 -113l26 -27l95 113l97 -112l26 28l-96 112l98 115zM50 347q0 125 88.5 214t213.5 89t214 -89t89 -214t-89 -213.5t-214 -88.5t-213.5 88.5t-88.5 213.5z" />
    <glyph glyph-name="acute" unicode="&#xb4;" horiz-adv-x="257" 
d="M9 542l73 181l149 -56v-15l-92 -126h-130v16z" />
    <glyph glyph-name="mu" unicode="&#xb5;" 
d="M449 489l-96 -115l-99 115l-26 -27l100 -116l-98 -113l26 -27l95 113l97 -112l26 28l-96 112l98 115zM50 347q0 125 88.5 214t213.5 89t214 -89t89 -214t-89 -213.5t-214 -88.5t-213.5 88.5t-88.5 213.5z" />
    <glyph glyph-name="paragraph" unicode="&#xb6;" 
d="M449 489l-96 -115l-99 115l-26 -27l100 -116l-98 -113l26 -27l95 113l97 -112l26 28l-96 112l98 115zM50 347q0 125 88.5 214t213.5 89t214 -89t89 -214t-89 -213.5t-214 -88.5t-213.5 88.5t-88.5 213.5z" />
    <glyph glyph-name="periodcentered" unicode="&#xb7;" 
d="M449 489l-96 -115l-99 115l-26 -27l100 -116l-98 -113l26 -27l95 113l97 -112l26 28l-96 112l98 115zM50 347q0 125 88.5 214t213.5 89t214 -89t89 -214t-89 -213.5t-214 -88.5t-213.5 88.5t-88.5 213.5z" />
    <glyph glyph-name="cedilla" unicode="&#xb8;" horiz-adv-x="333" 
d="M238 16l-15 -68q61 -13 61 -79q0 -48 -23.5 -77t-65.5 -35q-34 -5 -72 3t-66 26l10 92q24 -16 42 -16q30 0 34 18q5 19 -13 29.5t-33 10.5l22 96h119z" />
    <glyph glyph-name="onesuperior" unicode="&#xb9;" 
d="M449 489l-96 -115l-99 115l-26 -27l100 -116l-98 -113l26 -27l95 113l97 -112l26 28l-96 112l98 115zM50 347q0 125 88.5 214t213.5 89t214 -89t89 -214t-89 -213.5t-214 -88.5t-213.5 88.5t-88.5 213.5z" />
    <glyph glyph-name="ordmasculine" unicode="&#xba;" 
d="M449 489l-96 -115l-99 115l-26 -27l100 -116l-98 -113l26 -27l95 113l97 -112l26 28l-96 112l98 115zM50 347q0 125 88.5 214t213.5 89t214 -89t89 -214t-89 -213.5t-214 -88.5t-213.5 88.5t-88.5 213.5z" />
    <glyph glyph-name="guillemotright" unicode="&#xbb;" 
d="M449 489l-96 -115l-99 115l-26 -27l100 -116l-98 -113l26 -27l95 113l97 -112l26 28l-96 112l98 115zM50 347q0 125 88.5 214t213.5 89t214 -89t89 -214t-89 -213.5t-214 -88.5t-213.5 88.5t-88.5 213.5z" />
    <glyph glyph-name="onequarter" unicode="&#xbc;" 
d="M449 489l-96 -115l-99 115l-26 -27l100 -116l-98 -113l26 -27l95 113l97 -112l26 28l-96 112l98 115zM50 347q0 125 88.5 214t213.5 89t214 -89t89 -214t-89 -213.5t-214 -88.5t-213.5 88.5t-88.5 213.5z" />
    <glyph glyph-name="onehalf" unicode="&#xbd;" 
d="M449 489l-96 -115l-99 115l-26 -27l100 -116l-98 -113l26 -27l95 113l97 -112l26 28l-96 112l98 115zM50 347q0 125 88.5 214t213.5 89t214 -89t89 -214t-89 -213.5t-214 -88.5t-213.5 88.5t-88.5 213.5z" />
    <glyph glyph-name="threequarters" unicode="&#xbe;" 
d="M449 489l-96 -115l-99 115l-26 -27l100 -116l-98 -113l26 -27l95 113l97 -112l26 28l-96 112l98 115zM50 347q0 125 88.5 214t213.5 89t214 -89t89 -214t-89 -213.5t-214 -88.5t-213.5 88.5t-88.5 213.5z" />
    <glyph glyph-name="questiondown" unicode="&#xbf;" 
d="M449 489l-96 -115l-99 115l-26 -27l100 -116l-98 -113l26 -27l95 113l97 -112l26 28l-96 112l98 115zM50 347q0 125 88.5 214t213.5 89t214 -89t89 -214t-89 -213.5t-214 -88.5t-213.5 88.5t-88.5 213.5z" />
    <glyph glyph-name="Agrave" unicode="&#xc0;" horiz-adv-x="614" 
d="M255 751l-92 126v15l148 56l74 -181v-16h-130zM617 0h-179l-31 87h-199l-31 -87h-181v11l269 699h86l266 -699v-11zM257 229h101q-34 105 -51 199q-20 -99 -50 -199z" />
    <glyph glyph-name="Aacute" unicode="&#xc1;" horiz-adv-x="614" 
d="M233 767l73 181l149 -56v-15l-92 -126h-130v16zM617 0h-179l-31 87h-199l-31 -87h-181v11l269 699h86l266 -699v-11zM257 229h101q-34 105 -51 199q-20 -99 -50 -199z" />
    <glyph glyph-name="Acircumflex" unicode="&#xc2;" horiz-adv-x="614" 
d="M306 820l-47 -71h-158v16l125 156h161l124 -156v-16h-156zM617 0h-179l-31 87h-199l-31 -87h-181v11l269 699h86l266 -699v-11zM257 229h101q-34 105 -51 199q-20 -99 -50 -199z" />
    <glyph glyph-name="Atilde" unicode="&#xc3;" horiz-adv-x="614" 
d="M208 749l-92 43q9 55 40 89t73 34q20 0 45 -10t43.5 -20.5t36 -16.5t29 3t16.5 36l98 -37q-16 -124 -113 -124q-17 0 -40 9.5t-41.5 19t-37 14.5t-33.5 -4t-24 -36zM617 0h-179l-31 87h-199l-31 -87h-181v11l269 699h86l266 -699v-11zM257 229h101q-34 105 -51 199
q-20 -99 -50 -199z" />
    <glyph glyph-name="Adieresis" unicode="&#xc4;" horiz-adv-x="614" 
d="M197 751q-34 0 -59.5 22t-25.5 60t24 60.5t61 22.5q35 0 59.5 -22.5t24.5 -60.5q0 -37 -24.5 -59.5t-59.5 -22.5zM422 751q-33 0 -58.5 22t-25.5 60t24.5 60.5t59.5 22.5t59 -22.5t24 -60.5q0 -37 -24 -59.5t-59 -22.5zM617 0h-179l-31 87h-199l-31 -87h-181v11l269 699
h86l266 -699v-11zM257 229h101q-34 105 -51 199q-20 -99 -50 -199z" />
    <glyph glyph-name="Aring" unicode="&#xc5;" horiz-adv-x="615" 
d="M618 0h-179l-31 87h-199l-31 -87h-181v11l255 662q-30 15 -48 45t-18 67q0 57 34.5 91.5t91.5 34.5q56 0 89.5 -34.5t33.5 -91.5q0 -38 -18.5 -69t-49.5 -45l251 -660v-11zM312 821q-16 0 -25.5 -10t-9.5 -26q0 -15 9.5 -24.5t25.5 -9.5q15 0 24 9.5t9 24.5q0 16 -9 26
t-24 10zM356 233l-17 47q-13 38 -31 132q-23 -111 -30 -133l-16 -46h94z" />
    <glyph glyph-name="AE" unicode="&#xc6;" horiz-adv-x="716" 
d="M1 0v27l256 671h412v-159h-186v-100h165v-151h-165v-130h192v-158h-338v153h-124l-47 -153h-165zM337 302l6 242h-1l-76 -242h71z" />
    <glyph glyph-name="Ccedilla" unicode="&#xc7;" horiz-adv-x="644" 
d="M453 269h167q-13 -120 -75.5 -188t-151.5 -85l-10 -48q36 -7 54 -36t13 -63q-8 -50 -50 -75t-95.5 -21t-95.5 33l17 92q22 -14 51 -15t35 19q4 21 -15.5 33t-39.5 12l16 70q-111 22 -176.5 116t-65.5 236q0 163 83.5 262t220.5 99q103 0 186 -68.5t97 -199.5h-166
q-26 103 -117 103q-59 0 -95.5 -53.5t-36.5 -141.5q0 -86 36.5 -139t96.5 -53q46 0 77 28t40 83z" />
    <glyph glyph-name="Egrave" unicode="&#xc8;" horiz-adv-x="485" 
d="M213 750l-92 126v15l149 56l73 -181v-16h-130zM233 541v-100h186v-160h-186v-114h212v-167h-384v700h376v-159h-204z" />
    <glyph glyph-name="Eacute" unicode="&#xc9;" horiz-adv-x="485" 
d="M181 768l73 181l149 -56v-15l-92 -126h-130v16zM233 541v-100h186v-160h-186v-114h212v-167h-384v700h376v-159h-204z" />
    <glyph glyph-name="Ecircumflex" unicode="&#xca;" horiz-adv-x="485" 
d="M253 820l-45 -70h-151v15l120 154h154l117 -154v-15h-148zM233 541v-100h186v-160h-186v-114h212v-167h-384v700h376v-159h-204z" />
    <glyph glyph-name="Edieresis" unicode="&#xcb;" horiz-adv-x="485" 
d="M135 753q-36 0 -62 22.5t-26 62.5t25 63t63 23q36 0 61.5 -23.5t25.5 -62.5q0 -38 -25.5 -61.5t-61.5 -23.5zM369 753q-34 0 -61 23t-27 62t25.5 62.5t62.5 23.5q36 0 61.5 -23.5t25.5 -62.5q0 -38 -25 -61.5t-62 -23.5zM233 541v-100h186v-160h-186v-114h212v-167h-384
v700h376v-159h-204z" />
    <glyph glyph-name="Igrave" unicode="&#xcc;" horiz-adv-x="392" 
d="M151 751l-92 126v15l148 56l74 -181v-16h-130zM353 0h-314v148h70v404h-63v148h300v-148h-64v-404h71v-148z" />
    <glyph glyph-name="Iacute" unicode="&#xcd;" horiz-adv-x="392" 
d="M114 769l74 181l149 -56v-15l-93 -126h-130v16zM353 0h-314v148h70v404h-63v148h300v-148h-64v-404h71v-148z" />
    <glyph glyph-name="Icircumflex" unicode="&#xce;" horiz-adv-x="392" 
d="M195 827l-45 -69h-150v15l118 152h155l118 -152v-15h-148zM353 0h-314v148h71v404h-64v148h300v-148h-64v-404h71v-148z" />
    <glyph glyph-name="Idieresis" unicode="&#xcf;" horiz-adv-x="392" 
d="M80 753q-36 0 -62 22.5t-26 62.5t25 63t63 23q36 0 61.5 -23.5t25.5 -62.5q0 -38 -25.5 -61.5t-61.5 -23.5zM314 753q-34 0 -61 23t-27 62t25.5 62.5t62.5 23.5q36 0 61.5 -23.5t25.5 -62.5q0 -38 -25 -61.5t-62 -23.5zM353 0h-314v148h71v404h-64v148h300v-148h-63v-404
h70v-148z" />
    <glyph glyph-name="Eth" unicode="&#xd0;" horiz-adv-x="624" 
d="M592 353q2 -159 -79 -256t-215 -97h-231v284h-56v123h56v292h231q132 0 213 -95t81 -251zM240 165h56q55 0 88.5 51t33.5 135q0 83 -33.5 133.5t-88.5 50.5h-56v-128h82v-123h-82v-119z" />
    <glyph glyph-name="Ntilde" unicode="&#xd1;" horiz-adv-x="642" 
d="M216 748l-92 43q9 55 40 89t73 34q20 0 45 -10t43.5 -20.5t36 -16.5t29 3t16.5 36l98 -37q-16 -124 -113 -124q-17 0 -40 9.5t-41.5 19t-37 14.5t-33.5 -4t-24 -36zM233 0h-173v706h54l295 -340v334h173v-705h-50l-299 346v-341z" />
    <glyph glyph-name="Ograve" unicode="&#xd2;" horiz-adv-x="674" 
d="M291 758l-88 126v15l143 56l70 -181v-16h-125zM643 350q0 -162 -84 -261t-221 -99q-138 0 -222.5 99t-84.5 261t84.5 261t222.5 99q137 0 221 -99t84 -261zM203 350q0 -84 37 -136.5t98 -52.5q59 0 95 52.5t36 136.5t-36 136t-95 52q-61 0 -98 -52t-37 -136z" />
    <glyph glyph-name="Oacute" unicode="&#xd3;" horiz-adv-x="674" 
d="M261 772l69 181l143 -56v-15l-88 -126h-124v16zM643 350q0 -162 -84 -261t-221 -99q-138 0 -222.5 99t-84.5 261t84.5 261t222.5 99q137 0 221 -99t84 -261zM203 350q0 -84 37 -136.5t98 -52.5q59 0 95 52.5t36 136.5t-36 136t-95 52q-61 0 -98 -52t-37 -136z" />
    <glyph glyph-name="Ocircumflex" unicode="&#xd4;" horiz-adv-x="674" 
d="M340 824l-47 -71h-157v16l124 156h162l123 -156v-16h-155zM643 350q0 -162 -84 -261t-221 -99q-138 0 -222.5 99t-84.5 261t84.5 261t222.5 99q137 0 221 -99t84 -261zM203 350q0 -84 37 -136.5t98 -52.5q59 0 95 52.5t36 136.5t-36 136t-95 52q-61 0 -98 -52t-37 -136z
" />
    <glyph glyph-name="Otilde" unicode="&#xd5;" horiz-adv-x="674" 
d="M238 759l-92 43q9 55 40 89t73 34q20 0 45 -10t43.5 -20.5t36 -16.5t29 3t16.5 36l98 -37q-16 -124 -113 -124q-17 0 -40 9.5t-41.5 19t-37 14.5t-33.5 -4t-24 -36zM643 350q0 -162 -84 -261t-221 -99q-138 0 -222.5 99t-84.5 261t84.5 261t222.5 99q137 0 221 -99
t84 -261zM203 350q0 -84 37 -136.5t98 -52.5q59 0 95 52.5t36 136.5t-36 136t-95 52q-61 0 -98 -52t-37 -136z" />
    <glyph glyph-name="Odieresis" unicode="&#xd6;" horiz-adv-x="674" 
d="M217 751q-35 0 -61.5 22.5t-26.5 62.5q0 39 25 62.5t63 23.5q36 0 62 -23t26 -63q0 -38 -25.5 -61.5t-62.5 -23.5zM452 751q-35 0 -61.5 22.5t-26.5 62.5q0 39 25.5 62.5t62.5 23.5q36 0 61 -23.5t25 -62.5q0 -38 -25 -61.5t-61 -23.5zM643 350q0 -162 -84 -261t-221 -99
q-138 0 -222.5 99t-84.5 261t84.5 261t222.5 99q137 0 221 -99t84 -261zM203 350q0 -84 37 -136.5t98 -52.5q59 0 95 52.5t36 136.5t-36 136t-95 52q-61 0 -98 -52t-37 -136z" />
    <glyph glyph-name="multiply" unicode="&#xd7;" 
d="M449 489l-96 -115l-99 115l-26 -27l100 -116l-98 -113l26 -27l95 113l97 -112l26 28l-96 112l98 115zM50 347q0 125 88.5 214t213.5 89t214 -89t89 -214t-89 -213.5t-214 -88.5t-213.5 88.5t-88.5 213.5z" />
    <glyph glyph-name="Oslash" unicode="&#xd8;" horiz-adv-x="672" 
d="M629 743l-69 -129q81 -93 81 -264q0 -168 -87 -265t-217 -97q-52 0 -88 16l-34 -68h-64h-96v19l66 125q-89 94 -89 270q0 170 91 266t215 96q59 0 97 -19l33 67h161v-17zM219 236l136 300q-9 3 -18 3q-54 0 -93 -52.5t-39 -136.5q0 -69 14 -114zM460 455l-131 -292
q18 -2 24 -2q16 0 31 3q40 10 62 61t22 125q0 55 -8 105z" />
    <glyph glyph-name="Ugrave" unicode="&#xd9;" horiz-adv-x="601" 
d="M242 750l-93 126v15l149 56l74 -181v-16h-130zM301 -9q-110 0 -177.5 67t-67.5 177v465h173v-461q0 -39 20 -63t53 -24q32 0 51.5 24t19.5 63v461h172v-465q0 -109 -67.5 -176.5t-176.5 -67.5z" />
    <glyph glyph-name="Uacute" unicode="&#xda;" horiz-adv-x="601" 
d="M223 763l74 181l148 -56v-15l-92 -126h-130v16zM301 -9q-110 0 -177.5 67t-67.5 177v465h173v-461q0 -39 20 -63t53 -24q32 0 51.5 24t19.5 63v461h172v-465q0 -109 -67.5 -176.5t-176.5 -67.5z" />
    <glyph glyph-name="Ucircumflex" unicode="&#xdb;" horiz-adv-x="601" 
d="M301 825l-47 -67h-157v16l124 152h162l123 -152v-16h-155zM301 -9q-110 0 -177.5 67t-67.5 177v465h173v-461q0 -39 20 -63t53 -24q32 0 51.5 24t19.5 63v461h172v-465q0 -109 -67.5 -176.5t-176.5 -67.5z" />
    <glyph glyph-name="Udieresis" unicode="&#xdc;" horiz-adv-x="601" 
d="M184 765q-35 0 -61 22.5t-26 62.5t24.5 63t62.5 23q36 0 62 -23t26 -63q0 -38 -25.5 -61.5t-62.5 -23.5zM419 765q-35 0 -61.5 22.5t-26.5 62.5q0 39 25.5 62.5t62.5 23.5q36 0 61 -23.5t25 -62.5q0 -38 -25 -61.5t-61 -23.5zM301 -9q-110 0 -177.5 67t-67.5 177v465h173
v-461q0 -39 20 -63t53 -24q32 0 51.5 24t19.5 63v461h172v-465q0 -109 -67.5 -176.5t-176.5 -67.5z" />
    <glyph glyph-name="Yacute" unicode="&#xdd;" horiz-adv-x="563" 
d="M191 760l74 181l148 -56v-15l-92 -126h-130v16zM280 438h2q19 78 38 123l60 139h183v-10l-195 -423v-267h-173v267l-197 423v10h185l59 -139q14 -34 38 -123z" />
    <glyph glyph-name="Thorn" unicode="&#xde;" horiz-adv-x="561" 
d="M234 700v-84h81q103 0 165.5 -72t62.5 -191q0 -115 -62.5 -185.5t-165.5 -70.5h-81v-97h-173v700h173zM231 256h71q34 0 55 28t21 74q0 44 -21 71.5t-55 27.5h-71v-201z" />
    <glyph glyph-name="germandbls" unicode="&#xdf;" horiz-adv-x="556" 
d="M57 0v491q0 219 214 219q123 0 227 -54v-9l-79 -245q46 -11 75 -60.5t29 -119.5q0 -145 -68.5 -196.5t-189.5 -13.5v136q42 -11 64.5 10.5t22.5 70.5q0 96 -93 82v27l54 216q-15 11 -40 11t-41 -19.5t-16 -57.5v-488h-159z" />
    <glyph glyph-name="agrave" unicode="&#xe0;" horiz-adv-x="614" 
d="M255 751l-92 126v15l148 56l74 -181v-16h-130zM617 0h-179l-31 87h-199l-31 -87h-181v11l269 699h86l266 -699v-11zM257 229h101q-34 105 -51 199q-20 -99 -50 -199z" />
    <glyph glyph-name="aacute" unicode="&#xe1;" horiz-adv-x="614" 
d="M233 767l73 181l149 -56v-15l-92 -126h-130v16zM617 0h-179l-31 87h-199l-31 -87h-181v11l269 699h86l266 -699v-11zM257 229h101q-34 105 -51 199q-20 -99 -50 -199z" />
    <glyph glyph-name="acircumflex" unicode="&#xe2;" horiz-adv-x="614" 
d="M306 820l-47 -71h-158v16l125 156h161l124 -156v-16h-156zM617 0h-179l-31 87h-199l-31 -87h-181v11l269 699h86l266 -699v-11zM257 229h101q-34 105 -51 199q-20 -99 -50 -199z" />
    <glyph glyph-name="atilde" unicode="&#xe3;" horiz-adv-x="614" 
d="M208 749l-92 43q9 55 40 89t73 34q20 0 45 -10t43.5 -20.5t36 -16.5t29 3t16.5 36l98 -37q-16 -124 -113 -124q-17 0 -40 9.5t-41.5 19t-37 14.5t-33.5 -4t-24 -36zM617 0h-179l-31 87h-199l-31 -87h-181v11l269 699h86l266 -699v-11zM257 229h101q-34 105 -51 199
q-20 -99 -50 -199z" />
    <glyph glyph-name="adieresis" unicode="&#xe4;" horiz-adv-x="614" 
d="M197 751q-34 0 -59.5 22t-25.5 60t24 60.5t61 22.5q35 0 59.5 -22.5t24.5 -60.5q0 -37 -24.5 -59.5t-59.5 -22.5zM422 751q-33 0 -58.5 22t-25.5 60t24.5 60.5t59.5 22.5t59 -22.5t24 -60.5q0 -37 -24 -59.5t-59 -22.5zM617 0h-179l-31 87h-199l-31 -87h-181v11l269 699
h86l266 -699v-11zM257 229h101q-34 105 -51 199q-20 -99 -50 -199z" />
    <glyph glyph-name="aring" unicode="&#xe5;" horiz-adv-x="615" 
d="M618 0h-179l-31 87h-199l-31 -87h-181v11l255 662q-30 15 -48 45t-18 67q0 57 34.5 91.5t91.5 34.5q56 0 89.5 -34.5t33.5 -91.5q0 -38 -18.5 -69t-49.5 -45l251 -660v-11zM312 821q-16 0 -25.5 -10t-9.5 -26q0 -15 9.5 -24.5t25.5 -9.5q15 0 24 9.5t9 24.5q0 16 -9 26
t-24 10zM356 233l-17 47q-13 38 -31 132q-23 -111 -30 -133l-16 -46h94z" />
    <glyph glyph-name="ae" unicode="&#xe6;" horiz-adv-x="716" 
d="M1 0v27l256 671h412v-159h-186v-100h165v-151h-165v-130h192v-158h-338v153h-124l-47 -153h-165zM337 302l6 242h-1l-76 -242h71z" />
    <glyph glyph-name="ccedilla" unicode="&#xe7;" horiz-adv-x="644" 
d="M453 269h167q-13 -120 -75.5 -188t-151.5 -85l-10 -48q36 -7 54 -36t13 -63q-8 -50 -50 -75t-95.5 -21t-95.5 33l17 92q22 -14 51 -15t35 19q4 21 -15.5 33t-39.5 12l16 70q-111 22 -176.5 116t-65.5 236q0 163 83.5 262t220.5 99q103 0 186 -68.5t97 -199.5h-166
q-26 103 -117 103q-59 0 -95.5 -53.5t-36.5 -141.5q0 -86 36.5 -139t96.5 -53q46 0 77 28t40 83z" />
    <glyph glyph-name="egrave" unicode="&#xe8;" horiz-adv-x="485" 
d="M213 750l-92 126v15l149 56l73 -181v-16h-130zM233 541v-100h186v-160h-186v-114h212v-167h-384v700h376v-159h-204z" />
    <glyph glyph-name="eacute" unicode="&#xe9;" horiz-adv-x="485" 
d="M181 768l73 181l149 -56v-15l-92 -126h-130v16zM233 541v-100h186v-160h-186v-114h212v-167h-384v700h376v-159h-204z" />
    <glyph glyph-name="ecircumflex" unicode="&#xea;" horiz-adv-x="485" 
d="M253 820l-45 -70h-151v15l120 154h154l117 -154v-15h-148zM233 541v-100h186v-160h-186v-114h212v-167h-384v700h376v-159h-204z" />
    <glyph glyph-name="edieresis" unicode="&#xeb;" horiz-adv-x="485" 
d="M135 753q-36 0 -62 22.5t-26 62.5t25 63t63 23q36 0 61.5 -23.5t25.5 -62.5q0 -38 -25.5 -61.5t-61.5 -23.5zM369 753q-34 0 -61 23t-27 62t25.5 62.5t62.5 23.5q36 0 61.5 -23.5t25.5 -62.5q0 -38 -25 -61.5t-62 -23.5zM233 541v-100h186v-160h-186v-114h212v-167h-384
v700h376v-159h-204z" />
    <glyph glyph-name="igrave" unicode="&#xec;" horiz-adv-x="392" 
d="M151 751l-92 126v15l148 56l74 -181v-16h-130zM353 0h-314v148h70v404h-63v148h300v-148h-64v-404h71v-148z" />
    <glyph glyph-name="iacute" unicode="&#xed;" horiz-adv-x="392" 
d="M114 769l74 181l149 -56v-15l-93 -126h-130v16zM353 0h-314v148h70v404h-63v148h300v-148h-64v-404h71v-148z" />
    <glyph glyph-name="icircumflex" unicode="&#xee;" horiz-adv-x="392" 
d="M195 827l-45 -69h-150v15l118 152h155l118 -152v-15h-148zM353 0h-314v148h71v404h-64v148h300v-148h-64v-404h71v-148z" />
    <glyph glyph-name="idieresis" unicode="&#xef;" horiz-adv-x="392" 
d="M80 753q-36 0 -62 22.5t-26 62.5t25 63t63 23q36 0 61.5 -23.5t25.5 -62.5q0 -38 -25.5 -61.5t-61.5 -23.5zM314 753q-34 0 -61 23t-27 62t25.5 62.5t62.5 23.5q36 0 61.5 -23.5t25.5 -62.5q0 -38 -25 -61.5t-62 -23.5zM353 0h-314v148h71v404h-64v148h300v-148h-63v-404
h70v-148z" />
    <glyph glyph-name="eth" unicode="&#xf0;" horiz-adv-x="641" 
d="M609 353q2 -159 -79 -256t-215 -97h-231v284h-56v123h56v292h231q132 0 213 -95t81 -251zM257 165h56q55 0 88.5 51t33.5 135q0 83 -33.5 133.5t-88.5 50.5h-56v-128h82v-123h-82v-119z" />
    <glyph glyph-name="ntilde" unicode="&#xf1;" horiz-adv-x="642" 
d="M216 748l-92 43q9 55 40 89t73 34q20 0 45 -10t43.5 -20.5t36 -16.5t29 3t16.5 36l98 -37q-16 -124 -113 -124q-17 0 -40 9.5t-41.5 19t-37 14.5t-33.5 -4t-24 -36zM233 0h-173v706h54l295 -340v334h173v-705h-50l-299 346v-341z" />
    <glyph glyph-name="ograve" unicode="&#xf2;" horiz-adv-x="674" 
d="M291 758l-88 126v15l143 56l70 -181v-16h-125zM643 350q0 -162 -84 -261t-221 -99q-138 0 -222.5 99t-84.5 261t84.5 261t222.5 99q137 0 221 -99t84 -261zM203 350q0 -84 37 -136.5t98 -52.5q59 0 95 52.5t36 136.5t-36 136t-95 52q-61 0 -98 -52t-37 -136z" />
    <glyph glyph-name="oacute" unicode="&#xf3;" horiz-adv-x="674" 
d="M261 772l69 181l143 -56v-15l-88 -126h-124v16zM643 350q0 -162 -84 -261t-221 -99q-138 0 -222.5 99t-84.5 261t84.5 261t222.5 99q137 0 221 -99t84 -261zM203 350q0 -84 37 -136.5t98 -52.5q59 0 95 52.5t36 136.5t-36 136t-95 52q-61 0 -98 -52t-37 -136z" />
    <glyph glyph-name="ocircumflex" unicode="&#xf4;" horiz-adv-x="674" 
d="M340 824l-47 -71h-157v16l124 156h162l123 -156v-16h-155zM643 350q0 -162 -84 -261t-221 -99q-138 0 -222.5 99t-84.5 261t84.5 261t222.5 99q137 0 221 -99t84 -261zM203 350q0 -84 37 -136.5t98 -52.5q59 0 95 52.5t36 136.5t-36 136t-95 52q-61 0 -98 -52t-37 -136z
" />
    <glyph glyph-name="otilde" unicode="&#xf5;" horiz-adv-x="674" 
d="M238 759l-92 43q9 55 40 89t73 34q20 0 45 -10t43.5 -20.5t36 -16.5t29 3t16.5 36l98 -37q-16 -124 -113 -124q-17 0 -40 9.5t-41.5 19t-37 14.5t-33.5 -4t-24 -36zM643 350q0 -162 -84 -261t-221 -99q-138 0 -222.5 99t-84.5 261t84.5 261t222.5 99q137 0 221 -99
t84 -261zM203 350q0 -84 37 -136.5t98 -52.5q59 0 95 52.5t36 136.5t-36 136t-95 52q-61 0 -98 -52t-37 -136z" />
    <glyph glyph-name="odieresis" unicode="&#xf6;" horiz-adv-x="674" 
d="M217 751q-35 0 -61.5 22.5t-26.5 62.5q0 39 25 62.5t63 23.5q36 0 62 -23t26 -63q0 -38 -25.5 -61.5t-62.5 -23.5zM452 751q-35 0 -61.5 22.5t-26.5 62.5q0 39 25.5 62.5t62.5 23.5q36 0 61 -23.5t25 -62.5q0 -38 -25 -61.5t-61 -23.5zM643 350q0 -162 -84 -261t-221 -99
q-138 0 -222.5 99t-84.5 261t84.5 261t222.5 99q137 0 221 -99t84 -261zM203 350q0 -84 37 -136.5t98 -52.5q59 0 95 52.5t36 136.5t-36 136t-95 52q-61 0 -98 -52t-37 -136z" />
    <glyph glyph-name="divide" unicode="&#xf7;" 
d="M449 489l-96 -115l-99 115l-26 -27l100 -116l-98 -113l26 -27l95 113l97 -112l26 28l-96 112l98 115zM50 347q0 125 88.5 214t213.5 89t214 -89t89 -214t-89 -213.5t-214 -88.5t-213.5 88.5t-88.5 213.5z" />
    <glyph glyph-name="oslash" unicode="&#xf8;" horiz-adv-x="675" 
d="M630 743l-69 -129q81 -93 81 -264q0 -168 -87 -265t-217 -97q-52 0 -88 16l-34 -68h-64h-96v19l66 125q-89 94 -89 270q0 170 91 266t215 96q59 0 97 -19l33 67h161v-17zM220 236l136 300q-9 3 -18 3q-54 0 -93 -52.5t-39 -136.5q0 -69 14 -114zM461 455l-131 -292
q18 -2 24 -2q16 0 31 3q40 10 62 61t22 125q0 55 -8 105z" />
    <glyph glyph-name="ugrave" unicode="&#xf9;" horiz-adv-x="601" 
d="M242 750l-93 126v15l149 56l74 -181v-16h-130zM301 -9q-110 0 -177.5 67t-67.5 177v465h173v-461q0 -39 20 -63t53 -24q32 0 51.5 24t19.5 63v461h172v-465q0 -109 -67.5 -176.5t-176.5 -67.5z" />
    <glyph glyph-name="uacute" unicode="&#xfa;" horiz-adv-x="601" 
d="M223 763l74 181l148 -56v-15l-92 -126h-130v16zM301 -9q-110 0 -177.5 67t-67.5 177v465h173v-461q0 -39 20 -63t53 -24q32 0 51.5 24t19.5 63v461h172v-465q0 -109 -67.5 -176.5t-176.5 -67.5z" />
    <glyph glyph-name="ucircumflex" unicode="&#xfb;" horiz-adv-x="601" 
d="M301 825l-47 -67h-157v16l124 152h162l123 -152v-16h-155zM301 -9q-110 0 -177.5 67t-67.5 177v465h173v-461q0 -39 20 -63t53 -24q32 0 51.5 24t19.5 63v461h172v-465q0 -109 -67.5 -176.5t-176.5 -67.5z" />
    <glyph glyph-name="udieresis" unicode="&#xfc;" horiz-adv-x="601" 
d="M184 765q-35 0 -61 22.5t-26 62.5t24.5 63t62.5 23q36 0 62 -23t26 -63q0 -38 -25.5 -61.5t-62.5 -23.5zM419 765q-35 0 -61.5 22.5t-26.5 62.5q0 39 25.5 62.5t62.5 23.5q36 0 61 -23.5t25 -62.5q0 -38 -25 -61.5t-61 -23.5zM301 -9q-110 0 -177.5 67t-67.5 177v465h173
v-461q0 -39 20 -63t53 -24q32 0 51.5 24t19.5 63v461h172v-465q0 -109 -67.5 -176.5t-176.5 -67.5z" />
    <glyph glyph-name="yacute" unicode="&#xfd;" horiz-adv-x="563" 
d="M191 760l74 181l148 -56v-15l-92 -126h-130v16zM280 438h2q19 78 38 123l60 139h183v-10l-195 -423v-267h-173v267l-197 423v10h185l59 -139q14 -34 38 -123z" />
    <glyph glyph-name="thorn" unicode="&#xfe;" horiz-adv-x="561" 
d="M234 700v-84h81q103 0 165.5 -72t62.5 -191q0 -115 -62.5 -185.5t-165.5 -70.5h-81v-97h-173v700h173zM231 256h71q34 0 55 28t21 74q0 44 -21 71.5t-55 27.5h-71v-201z" />
    <glyph glyph-name="ydieresis" unicode="&#xff;" horiz-adv-x="563" 
d="M162 748q-36 0 -62 22.5t-26 62.5t25 63t63 23q36 0 61.5 -23.5t25.5 -62.5q0 -38 -25.5 -61.5t-61.5 -23.5zM396 748q-34 0 -61 23t-27 62t25.5 62.5t62.5 23.5q36 0 61 -23.5t25 -62.5q0 -38 -25 -61.5t-61 -23.5zM280 438h2q19 78 38 123l60 139h183v-10l-195 -423
v-267h-173v267l-197 423v10h185l59 -139q14 -34 38 -123z" />
    <glyph glyph-name="Amacron" unicode="&#x100;" horiz-adv-x="614" 
d="M448 877v-126h-289v126h289zM617 0h-179l-31 87h-199l-31 -87h-181v11l269 699h86l266 -699v-11zM257 229h101q-34 105 -51 199q-20 -99 -50 -199z" />
    <glyph glyph-name="amacron" unicode="&#x101;" horiz-adv-x="614" 
d="M448 877v-126h-289v126h289zM617 0h-179l-31 87h-199l-31 -87h-181v11l269 699h86l266 -699v-11zM257 229h101q-34 105 -51 199q-20 -99 -50 -199z" />
    <glyph glyph-name="Abreve" unicode="&#x102;" horiz-adv-x="614" 
d="M124 929h135q2 -23 16 -36.5t35 -14.5q21 0 35 14t16 37h133q0 -81 -51 -130.5t-135 -49.5q-80 0 -131 49.5t-53 130.5zM617 0h-179l-31 87h-199l-31 -87h-181v11l269 699h86l266 -699v-11zM257 229h101q-34 105 -51 199q-20 -99 -50 -199z" />
    <glyph glyph-name="abreve" unicode="&#x103;" horiz-adv-x="614" 
d="M124 929h135q2 -23 16 -36.5t35 -14.5q21 0 35 14t16 37h133q0 -81 -51 -130.5t-135 -49.5q-80 0 -131 49.5t-53 130.5zM617 0h-179l-31 87h-199l-31 -87h-181v11l269 699h86l266 -699v-11zM257 229h101q-34 105 -51 199q-20 -99 -50 -199z" />
    <glyph glyph-name="Aogonek" unicode="&#x104;" horiz-adv-x="614" 
d="M612 -97l28 -106q-65 -46 -147 -43q-39 0 -71.5 19.5t-42.5 57.5q-25 95 59 169l-31 87h-199l-31 -87h-181v11l269 699h86l266 -699v-11h-4q-57 0 -89 -30.5t-25 -62.5q9 -32 49 -30t64 26zM355 233l-17 47q-13 38 -31 132q-23 -111 -30 -133l-16 -46h94z" />
    <glyph glyph-name="aogonek" unicode="&#x105;" horiz-adv-x="614" 
d="M612 -97l28 -106q-65 -46 -147 -43q-39 0 -71.5 19.5t-42.5 57.5q-25 95 59 169l-31 87h-199l-31 -87h-181v11l269 699h86l266 -699v-11h-4q-57 0 -89 -30.5t-25 -62.5q9 -32 49 -30t64 26zM355 233l-17 47q-13 38 -31 132q-23 -111 -30 -133l-16 -46h94z" />
    <glyph glyph-name="Cacute" unicode="&#x106;" horiz-adv-x="645" 
d="M257 777l69 181l143 -56v-15l-88 -126h-124v16zM31 349q0 163 83.5 262t220.5 99q103 0 186 -68.5t97 -199.5h-166q-26 103 -117 103q-59 0 -95.5 -53.5t-36.5 -141.5q0 -86 36.5 -139t96.5 -53q46 0 77 28t40 83h167q-10 -95 -55 -159.5t-103.5 -91.5t-126.5 -27
q-137 0 -220.5 98.5t-83.5 259.5z" />
    <glyph glyph-name="cacute" unicode="&#x107;" horiz-adv-x="645" 
d="M257 777l69 181l143 -56v-15l-88 -126h-124v16zM31 349q0 163 83.5 262t220.5 99q103 0 186 -68.5t97 -199.5h-166q-26 103 -117 103q-59 0 -95.5 -53.5t-36.5 -141.5q0 -86 36.5 -139t96.5 -53q46 0 77 28t40 83h167q-10 -95 -55 -159.5t-103.5 -91.5t-126.5 -27
q-137 0 -220.5 98.5t-83.5 259.5z" />
    <glyph glyph-name="Ccircumflex" unicode="&#x108;" horiz-adv-x="645" 
d="M335 831l-48 -71h-157v16l124 156h162l123 -156v-16h-155zM31 349q0 163 83.5 262t220.5 99q103 0 186 -68.5t97 -199.5h-166q-26 103 -117 103q-59 0 -95.5 -53.5t-36.5 -141.5q0 -86 36.5 -139t96.5 -53q46 0 77 28t40 83h167q-10 -95 -55 -159.5t-103.5 -91.5
t-126.5 -27q-137 0 -220.5 98.5t-83.5 259.5z" />
    <glyph glyph-name="ccircumflex" unicode="&#x109;" horiz-adv-x="645" 
d="M335 831l-48 -71h-157v16l124 156h162l123 -156v-16h-155zM31 349q0 163 83.5 262t220.5 99q103 0 186 -68.5t97 -199.5h-166q-26 103 -117 103q-59 0 -95.5 -53.5t-36.5 -141.5q0 -86 36.5 -139t96.5 -53q46 0 77 28t40 83h167q-10 -95 -55 -159.5t-103.5 -91.5
t-126.5 -27q-137 0 -220.5 98.5t-83.5 259.5z" />
    <glyph glyph-name="Cdotaccent" unicode="&#x10a;" horiz-adv-x="645" 
d="M333 763q-38 0 -63 23.5t-25 63.5t25 64t63 24t62.5 -23.5t24.5 -64.5q0 -39 -24 -63t-63 -24zM31 349q0 163 83.5 262t220.5 99q103 0 186 -68.5t97 -199.5h-166q-26 103 -117 103q-59 0 -95.5 -53.5t-36.5 -141.5q0 -86 36.5 -139t96.5 -53q46 0 77 28t40 83h167
q-10 -95 -55 -159.5t-103.5 -91.5t-126.5 -27q-137 0 -220.5 98.5t-83.5 259.5z" />
    <glyph glyph-name="cdotaccent" unicode="&#x10b;" horiz-adv-x="645" 
d="M333 763q-38 0 -63 23.5t-25 63.5t25 64t63 24t62.5 -23.5t24.5 -64.5q0 -39 -24 -63t-63 -24zM31 349q0 163 83.5 262t220.5 99q103 0 186 -68.5t97 -199.5h-166q-26 103 -117 103q-59 0 -95.5 -53.5t-36.5 -141.5q0 -86 36.5 -139t96.5 -53q46 0 77 28t40 83h167
q-10 -95 -55 -159.5t-103.5 -91.5t-126.5 -27q-137 0 -220.5 98.5t-83.5 259.5z" />
    <glyph glyph-name="Ccaron" unicode="&#x10c;" horiz-adv-x="645" 
d="M334 853l48 70h153v-16l-122 -153h-158l-122 153v16h152zM31 349q0 163 83.5 262t220.5 99q103 0 186 -68.5t97 -199.5h-166q-26 103 -117 103q-59 0 -95.5 -53.5t-36.5 -141.5q0 -86 36.5 -139t96.5 -53q46 0 77 28t40 83h167q-10 -95 -55 -159.5t-103.5 -91.5
t-126.5 -27q-137 0 -220.5 98.5t-83.5 259.5z" />
    <glyph glyph-name="ccaron" unicode="&#x10d;" horiz-adv-x="645" 
d="M334 853l48 70h153v-16l-122 -153h-158l-122 153v16h152zM31 349q0 163 83.5 262t220.5 99q103 0 186 -68.5t97 -199.5h-166q-26 103 -117 103q-59 0 -95.5 -53.5t-36.5 -141.5q0 -86 36.5 -139t96.5 -53q46 0 77 28t40 83h167q-10 -95 -55 -159.5t-103.5 -91.5
t-126.5 -27q-137 0 -220.5 98.5t-83.5 259.5z" />
    <glyph glyph-name="Dcaron" unicode="&#x10e;" horiz-adv-x="618" 
d="M277 848l46 67h148v-15l-118 -149h-153l-119 149v15h148zM61 699h231q132 0 213 -95t81 -251q2 -159 -79 -256t-215 -97h-231v699zM234 165h56q55 0 88.5 51t33.5 135q0 83 -33.5 133.5t-88.5 50.5h-56v-370z" />
    <glyph glyph-name="dcaron" unicode="&#x10f;" horiz-adv-x="618" 
d="M277 848l46 67h148v-15l-118 -149h-153l-119 149v15h148zM61 699h231q132 0 213 -95t81 -251q2 -159 -79 -256t-215 -97h-231v699zM234 165h56q55 0 88.5 51t33.5 135q0 83 -33.5 133.5t-88.5 50.5h-56v-370z" />
    <glyph glyph-name="Dcroat" unicode="&#x110;" horiz-adv-x="624" 
d="M592 353q2 -159 -79 -256t-215 -97h-231v284h-56v123h56v292h231q132 0 213 -95t81 -251zM240 165h56q55 0 88.5 51t33.5 135q0 83 -33.5 133.5t-88.5 50.5h-56v-128h82v-123h-82v-119z" />
    <glyph glyph-name="dcroat" unicode="&#x111;" horiz-adv-x="641" 
d="M609 353q2 -159 -79 -256t-215 -97h-231v284h-56v123h56v292h231q132 0 213 -95t81 -251zM257 165h56q55 0 88.5 51t33.5 135q0 83 -33.5 133.5t-88.5 50.5h-56v-128h82v-123h-82v-119z" />
    <glyph glyph-name="Emacron" unicode="&#x112;" horiz-adv-x="485" 
d="M394 898v-135h-289v135h289zM233 541v-100h186v-160h-186v-114h212v-167h-384v700h376v-159h-204z" />
    <glyph glyph-name="emacron" unicode="&#x113;" horiz-adv-x="485" 
d="M394 898v-135h-289v135h289zM233 541v-100h186v-160h-186v-114h212v-167h-384v700h376v-159h-204z" />
    <glyph glyph-name="Ebreve" unicode="&#x114;" horiz-adv-x="485" 
d="M70 916h130q2 -22 15.5 -35t33.5 -14q20 0 33.5 13.5t15.5 35.5h128q0 -78 -49 -125.5t-130 -47.5q-77 0 -126 47.5t-51 125.5zM233 541v-100h186v-160h-186v-114h212v-167h-384v700h376v-159h-204z" />
    <glyph glyph-name="ebreve" unicode="&#x115;" horiz-adv-x="485" 
d="M70 916h130q2 -22 15.5 -35t33.5 -14q20 0 33.5 13.5t15.5 35.5h128q0 -78 -49 -125.5t-130 -47.5q-77 0 -126 47.5t-51 125.5zM233 541v-100h186v-160h-186v-114h212v-167h-384v700h376v-159h-204z" />
    <glyph glyph-name="Edotaccent" unicode="&#x116;" horiz-adv-x="485" 
d="M248 748q-40 0 -66.5 25t-26.5 66t26.5 66.5t66.5 25.5t66.5 -25t26.5 -67q0 -41 -26.5 -66t-66.5 -25zM233 541v-100h186v-160h-186v-114h212v-167h-384v700h376v-159h-204z" />
    <glyph glyph-name="edotaccent" unicode="&#x117;" horiz-adv-x="485" 
d="M248 748q-40 0 -66.5 25t-26.5 66t26.5 66.5t66.5 25.5t66.5 -25t26.5 -67q0 -41 -26.5 -66t-66.5 -25zM233 541v-100h186v-160h-186v-114h212v-167h-384v700h376v-159h-204z" />
    <glyph glyph-name="Eogonek" unicode="&#x118;" horiz-adv-x="486" 
d="M232 541v-100h188v-160h-188v-114h214v-167h-72q-28 -24 -37 -67q-8 -34 13 -49.5t46 -8.5q31 8 54 31l23 -106q-54 -42 -117 -45q-53 -2 -91.5 20t-50.5 74q-17 75 53 151h-207v700h378v-159h-206z" />
    <glyph glyph-name="eogonek" unicode="&#x119;" horiz-adv-x="486" 
d="M232 541v-100h188v-160h-188v-114h214v-167h-72q-28 -24 -37 -67q-8 -34 13 -49.5t46 -8.5q31 8 54 31l23 -106q-54 -42 -117 -45q-53 -2 -91.5 20t-50.5 74q-17 75 53 151h-207v700h378v-159h-206z" />
    <glyph glyph-name="Ecaron" unicode="&#x11a;" horiz-adv-x="485" 
d="M255 858l48 69h150v-16l-120 -150h-156l-119 150v16h148zM233 541v-100h186v-160h-186v-114h212v-167h-384v700h376v-159h-204z" />
    <glyph glyph-name="ecaron" unicode="&#x11b;" horiz-adv-x="485" 
d="M255 858l48 69h150v-16l-120 -150h-156l-119 150v16h148zM233 541v-100h186v-160h-186v-114h212v-167h-384v700h376v-159h-204z" />
    <glyph glyph-name="Gcircumflex" unicode="&#x11c;" horiz-adv-x="647" 
d="M334 829l-47 -71h-157v16l124 156h162l123 -156v-16h-155zM31 349q0 161 87 261t221 100q62 0 117 -23.5t99 -79.5t58 -138h-168q-25 77 -106 77q-64 0 -98.5 -53t-34.5 -143q0 -86 36.5 -139t96.5 -53q84 0 106 85h-106v154h281q6 -85 -7 -157.5t-45.5 -128.5t-91 -88
t-137.5 -32q-139 0 -223.5 98.5t-84.5 259.5z" />
    <glyph glyph-name="gcircumflex" unicode="&#x11d;" horiz-adv-x="647" 
d="M334 829l-47 -71h-157v16l124 156h162l123 -156v-16h-155zM31 349q0 161 87 261t221 100q62 0 117 -23.5t99 -79.5t58 -138h-168q-25 77 -106 77q-64 0 -98.5 -53t-34.5 -143q0 -86 36.5 -139t96.5 -53q84 0 106 85h-106v154h281q6 -85 -7 -157.5t-45.5 -128.5t-91 -88
t-137.5 -32q-139 0 -223.5 98.5t-84.5 259.5z" />
    <glyph glyph-name="Gbreve" unicode="&#x11e;" horiz-adv-x="647" 
d="M147 934h135q2 -22 16 -36t35 -15q21 0 35 14t16 37h133q0 -81 -51 -130.5t-135 -49.5q-80 0 -131 49.5t-53 130.5zM31 349q0 161 87 261t221 100q62 0 117 -23.5t99 -79.5t58 -138h-168q-25 77 -106 77q-64 0 -98.5 -53t-34.5 -143q0 -86 36.5 -139t96.5 -53
q84 0 106 85h-106v154h281q6 -85 -7 -157.5t-45.5 -128.5t-91 -88t-137.5 -32q-139 0 -223.5 98.5t-84.5 259.5z" />
    <glyph glyph-name="gbreve" unicode="&#x11f;" horiz-adv-x="647" 
d="M147 934h135q2 -22 16 -36t35 -15q21 0 35 14t16 37h133q0 -81 -51 -130.5t-135 -49.5q-80 0 -131 49.5t-53 130.5zM31 349q0 161 87 261t221 100q62 0 117 -23.5t99 -79.5t58 -138h-168q-25 77 -106 77q-64 0 -98.5 -53t-34.5 -143q0 -86 36.5 -139t96.5 -53
q84 0 106 85h-106v154h281q6 -85 -7 -157.5t-45.5 -128.5t-91 -88t-137.5 -32q-139 0 -223.5 98.5t-84.5 259.5z" />
    <glyph glyph-name="Gdotaccent" unicode="&#x120;" horiz-adv-x="647" 
d="M337 756q-37 0 -64.5 23t-27.5 62q0 37 27.5 61.5t64.5 24.5q41 0 66.5 -24t25.5 -62q0 -40 -25.5 -62.5t-66.5 -22.5zM31 349q0 161 87 261t221 100q62 0 117 -23.5t99 -79.5t58 -138h-168q-25 77 -106 77q-64 0 -98.5 -53t-34.5 -143q0 -86 36.5 -139t96.5 -53
q84 0 106 85h-106v154h281q6 -85 -7 -157.5t-45.5 -128.5t-91 -88t-137.5 -32q-139 0 -223.5 98.5t-84.5 259.5z" />
    <glyph glyph-name="gdotaccent" unicode="&#x121;" horiz-adv-x="647" 
d="M337 756q-37 0 -64.5 23t-27.5 62q0 37 27.5 61.5t64.5 24.5q41 0 66.5 -24t25.5 -62q0 -40 -25.5 -62.5t-66.5 -22.5zM31 349q0 161 87 261t221 100q62 0 117 -23.5t99 -79.5t58 -138h-168q-25 77 -106 77q-64 0 -98.5 -53t-34.5 -143q0 -86 36.5 -139t96.5 -53
q84 0 106 85h-106v154h281q6 -85 -7 -157.5t-45.5 -128.5t-91 -88t-137.5 -32q-139 0 -223.5 98.5t-84.5 259.5z" />
    <glyph glyph-name="Gcommaaccent" unicode="&#x122;" horiz-adv-x="647" 
d="M31 349q0 161 87 261t221 100q62 0 117 -23.5t99 -79.5t58 -138h-168q-25 77 -106 77q-64 0 -98.5 -53t-34.5 -143q0 -86 36.5 -139t96.5 -53q84 0 106 85h-106v154h281q6 -85 -7 -157.5t-45.5 -128.5t-91 -88t-137.5 -32q-139 0 -223.5 98.5t-84.5 259.5zM404 -126
q0 -12 -5 -30l-30 -108h-77l15 62q-24 8 -39.5 28t-15.5 48q0 36 21.5 57.5t54.5 21.5q34 0 55 -22t21 -57z" />
    <glyph glyph-name="gcommaaccent" unicode="&#x123;" horiz-adv-x="647" 
d="M31 349q0 161 87 261t221 100q62 0 117 -23.5t99 -79.5t58 -138h-168q-25 77 -106 77q-64 0 -98.5 -53t-34.5 -143q0 -86 36.5 -139t96.5 -53q84 0 106 85h-106v154h281q6 -85 -7 -157.5t-45.5 -128.5t-91 -88t-137.5 -32q-139 0 -223.5 98.5t-84.5 259.5zM404 -126
q0 -12 -5 -30l-30 -108h-77l15 62q-24 8 -39.5 28t-15.5 48q0 36 21.5 57.5t54.5 21.5q34 0 55 -22t21 -57z" />
    <glyph glyph-name="Hcircumflex" unicode="&#x124;" horiz-adv-x="626" 
d="M309 823l-47 -71h-158v16l124 156h162l124 -156v-16h-156zM392 280h-158v-280h-173v700h173v-253h158v253h173v-700h-173v280z" />
    <glyph glyph-name="hcircumflex" unicode="&#x125;" horiz-adv-x="626" 
d="M309 823l-47 -71h-158v16l124 156h162l124 -156v-16h-156zM392 280h-158v-280h-173v700h173v-253h158v253h173v-700h-173v280z" />
    <glyph glyph-name="Hbar" unicode="&#x126;" horiz-adv-x="635" 
d="M65 611v89h174v-89h158v89h172v-89h54v-101h-54v-510h-172v264h-158v-264h-174v510h-51v101h51zM397 510h-158v-79h158v79z" />
    <glyph glyph-name="hbar" unicode="&#x127;" horiz-adv-x="664" 
d="M79 611v89h174v-89h158v89h172v-89h54v-101h-54v-510h-172v264h-158v-264h-174v510h-51v101h51zM411 510h-158v-79h158v79z" />
    <glyph glyph-name="Itilde" unicode="&#x128;" horiz-adv-x="392" 
d="M97 755l-92 43q9 55 40 89t73 34q20 0 45 -10t43.5 -20.5t36 -16.5t29 3t16.5 36l98 -37q-16 -124 -113 -124q-17 0 -40 9.5t-41.5 19t-37 14.5t-33.5 -4t-24 -36zM353 0h-314v148h71v404h-64v148h300v-148h-63v-404h70v-148z" />
    <glyph glyph-name="itilde" unicode="&#x129;" horiz-adv-x="392" 
d="M97 755l-92 43q9 55 40 89t73 34q20 0 45 -10t43.5 -20.5t36 -16.5t29 3t16.5 36l98 -37q-16 -124 -113 -124q-17 0 -40 9.5t-41.5 19t-37 14.5t-33.5 -4t-24 -36zM353 0h-314v148h71v404h-64v148h300v-148h-63v-404h70v-148z" />
    <glyph glyph-name="Imacron" unicode="&#x12a;" horiz-adv-x="392" 
d="M341 902v-135h-289v135h289zM353 0h-314v148h70v404h-63v148h300v-148h-64v-404h71v-148z" />
    <glyph glyph-name="imacron" unicode="&#x12b;" horiz-adv-x="392" 
d="M341 902v-135h-289v135h289zM353 0h-314v148h70v404h-63v148h300v-148h-64v-404h71v-148z" />
    <glyph glyph-name="Ibreve" unicode="&#x12c;" horiz-adv-x="391" 
d="M18 943h132q1 -27 22.5 -41t43.5 -10q32 6 36 51h131q0 -87 -53 -137.5t-129 -50.5q-73 0 -128 50.5t-55 137.5zM352 0h-313v148h70v404h-63v148h300v-148h-64v-404h70v-148z" />
    <glyph glyph-name="ibreve" unicode="&#x12d;" horiz-adv-x="391" 
d="M18 943h132q1 -27 22.5 -41t43.5 -10q32 6 36 51h131q0 -87 -53 -137.5t-129 -50.5q-73 0 -128 50.5t-55 137.5zM352 0h-313v148h70v404h-63v148h300v-148h-64v-404h70v-148z" />
    <glyph glyph-name="Iogonek" unicode="&#x12e;" horiz-adv-x="392" 
d="M353 0h-98q-42 -33 -39 -79q1 -27 18.5 -40.5t39.5 -5.5q25 6 55 31l23 -106q-55 -45 -131 -42q-43 2 -78.5 23t-45.5 68q-18 84 51 151h-109v148h70v404h-63v148h300v-148h-64v-404h71v-148z" />
    <glyph glyph-name="iogonek" unicode="&#x12f;" horiz-adv-x="392" 
d="M353 0h-98q-42 -33 -39 -79q1 -27 18.5 -40.5t39.5 -5.5q25 6 55 31l23 -106q-55 -45 -131 -42q-43 2 -78.5 23t-45.5 68q-18 84 51 151h-109v148h70v404h-63v148h300v-148h-64v-404h71v-148z" />
    <glyph glyph-name="Idotaccent" unicode="&#x130;" horiz-adv-x="392" 
d="M199 753q-42 0 -71.5 25t-29.5 67t29.5 67.5t71.5 25.5t71 -25.5t29 -67.5q0 -43 -28 -67.5t-72 -24.5zM353 0h-314v148h70v404h-63v148h300v-148h-64v-404h71v-148z" />
    <glyph glyph-name="dotlessi" unicode="&#x131;" horiz-adv-x="392" 
d="M353 0h-314v148h70v404h-63v148h300v-148h-64v-404h71v-148z" />
    <glyph glyph-name="IJ" unicode="&#x132;" horiz-adv-x="923" 
d="M353 0h-314v148h70v404h-63v148h300v-148h-64v-404h71v-148zM867 700v-469q0 -110 -67.5 -175.5t-163.5 -65.5q-97 0 -162 65t-65 176v91h161v-88q0 -40 18 -61t47 -21q27 0 43 21t16 61v311h-85v155h258z" />
    <glyph glyph-name="ij" unicode="&#x133;" horiz-adv-x="923" 
d="M353 0h-314v148h70v404h-63v148h300v-148h-64v-404h71v-148zM867 700v-469q0 -110 -67.5 -175.5t-163.5 -65.5q-97 0 -162 65t-65 176v91h161v-88q0 -40 18 -61t47 -21q27 0 43 21t16 61v311h-85v155h258z" />
    <glyph glyph-name="Jcircumflex" unicode="&#x134;" horiz-adv-x="531" 
d="M331 830l-45 -72h-148v16l117 158h152l117 -158v-16h-146zM475 700v-469q0 -109 -63.5 -175t-167.5 -66q-90 0 -158.5 62.5t-68.5 178.5v91h161v-88q0 -41 18 -61.5t47 -20.5q27 0 43 21t16 61v309h-76v157h249z" />
    <glyph glyph-name="jcircumflex" unicode="&#x135;" horiz-adv-x="531" 
d="M331 830l-45 -72h-148v16l117 158h152l117 -158v-16h-146zM475 700v-469q0 -109 -63.5 -175t-167.5 -66q-90 0 -158.5 62.5t-68.5 178.5v91h161v-88q0 -41 18 -61.5t47 -20.5q27 0 43 21t16 61v309h-76v157h249z" />
    <glyph glyph-name="Kcommaaccent" unicode="&#x136;" horiz-adv-x="621" 
d="M233 426h30q31 0 45 8t26.5 40t26.5 105q23 119 141 128q39 3 80 -8v-123q-9 3 -17 0.5t-13 -1t-10.5 -3t-8 -5t-6 -7t-5.5 -9.5t-4.5 -12t-4 -15t-5 -17.5t-5.5 -20.5q-31 -106 -56 -146q9 -18 69 -135t93 -178v-27h-196l-118 270q-15 -3 -62 -3v-267h-173v700h173v-274
zM404 -124q0 -13 -5 -31l-38 -123h-80l22 75q-24 8 -40.5 29.5t-16.5 49.5q0 36 22.5 59t56.5 23q35 0 57 -22t22 -60z" />
    <glyph glyph-name="kcommaaccent" unicode="&#x137;" horiz-adv-x="621" 
d="M233 426h30q31 0 45 8t26.5 40t26.5 105q23 119 141 128q39 3 80 -8v-123q-9 3 -17 0.5t-13 -1t-10.5 -3t-8 -5t-6 -7t-5.5 -9.5t-4.5 -12t-4 -15t-5 -17.5t-5.5 -20.5q-31 -106 -56 -146q9 -18 69 -135t93 -178v-27h-196l-118 270q-15 -3 -62 -3v-267h-173v700h173v-274
zM404 -124q0 -13 -5 -31l-38 -123h-80l22 75q-24 8 -40.5 29.5t-16.5 49.5q0 36 22.5 59t56.5 23q35 0 57 -22t22 -60z" />
    <glyph glyph-name="kgreenlandic" unicode="&#x138;" horiz-adv-x="622" 
d="M233 700v-274q60 0 77 11t26 39t24 103q14 72 68 108t154 12v-123q-52 5 -64 -50q-29 -128 -71 -186q9 -18 69 -135t93 -178v-27h-196l-118 270q-14 -3 -62 -3v-267h-173v700h173z" />
    <glyph glyph-name="Lacute" unicode="&#x139;" horiz-adv-x="440" 
d="M76 768l73 181l149 -56v-15l-92 -126h-130v16zM428 164v-164h-367v700h173v-536h194z" />
    <glyph glyph-name="lacute" unicode="&#x13a;" horiz-adv-x="440" 
d="M76 768l73 181l149 -56v-15l-92 -126h-130v16zM428 164v-164h-367v700h173v-536h194z" />
    <glyph glyph-name="Lcommaaccent" unicode="&#x13b;" horiz-adv-x="440" 
d="M428 164v-164h-367v700h173v-536h194zM324 -124q0 -13 -5 -31l-38 -123h-80l22 75q-24 8 -40.5 29.5t-16.5 49.5q0 36 22.5 59t56.5 23q35 0 57 -22t22 -60z" />
    <glyph glyph-name="lcommaaccent" unicode="&#x13c;" horiz-adv-x="440" 
d="M428 164v-164h-367v700h173v-536h194zM324 -124q0 -13 -5 -31l-38 -123h-80l22 75q-24 8 -40.5 29.5t-16.5 49.5q0 36 22.5 59t56.5 23q35 0 57 -22t22 -60z" />
    <glyph glyph-name="Lcaron" unicode="&#x13d;" horiz-adv-x="458" 
d="M442 581q-4 -7 -8 -25l-29 -112h-90l23 87q-29 7 -46 29.5t-17 54.5q0 40 24.5 64t64.5 24q39 0 65 -24.5t23 -63.5q0 -14 -10 -34zM427 164v-164h-367v700h173v-536h194z" />
    <glyph glyph-name="lcaron" unicode="&#x13e;" horiz-adv-x="476" 
d="M442 581q-4 -7 -8 -25l-29 -112h-90l23 87q-29 7 -46 29.5t-17 54.5q0 40 24.5 64t64.5 24q39 0 65 -24.5t23 -63.5q0 -14 -10 -34zM427 164v-164h-367v700h173v-536h194z" />
    <glyph glyph-name="Ldot" unicode="&#x13f;" horiz-adv-x="470" 
d="M428 164v-164h-367v700h173v-536h194zM359 287q-37 0 -62 25.5t-25 66.5t25 66.5t62 25.5q38 0 62 -25t24 -67t-24 -67t-62 -25z" />
    <glyph glyph-name="ldot" unicode="&#x140;" horiz-adv-x="470" 
d="M428 164v-164h-367v700h173v-536h194zM359 287q-37 0 -62 25.5t-25 66.5t25 66.5t62 25.5q38 0 62 -25t24 -67t-24 -67t-62 -25z" />
    <glyph glyph-name="Lslash" unicode="&#x141;" horiz-adv-x="449" 
d="M337 470v-126l-94 -32v-148h203v-164h-376v262l-61 -21v126l61 21v312h173v-262z" />
    <glyph glyph-name="lslash" unicode="&#x142;" horiz-adv-x="480" 
d="M356 470v-126l-94 -32v-148h203v-164h-376v262l-61 -21v126l61 21v312h173v-262z" />
    <glyph glyph-name="Nacute" unicode="&#x143;" horiz-adv-x="642" 
d="M231 762l71 181l145 -56v-15l-90 -126h-126v16zM233 0h-173v706h54l295 -340v334h173v-705h-50l-299 346v-341z" />
    <glyph glyph-name="nacute" unicode="&#x144;" horiz-adv-x="642" 
d="M231 762l71 181l145 -56v-15l-90 -126h-126v16zM233 0h-173v706h54l295 -340v334h173v-705h-50l-299 346v-341z" />
    <glyph glyph-name="Ncommaaccent" unicode="&#x145;" horiz-adv-x="642" 
d="M233 0h-173v706h54l295 -340v334h173v-705h-50l-299 346v-341zM444 -113q0 -13 -5 -31l-38 -123h-80l22 75q-23 7 -39.5 29t-16.5 50q0 36 22.5 59t56.5 23t56 -22.5t22 -59.5z" />
    <glyph glyph-name="ncommaaccent" unicode="&#x146;" horiz-adv-x="642" 
d="M233 0h-173v706h54l295 -340v334h173v-705h-50l-299 346v-341zM444 -113q0 -13 -5 -31l-38 -123h-80l22 75q-23 7 -39.5 29t-16.5 50q0 36 22.5 59t56.5 23t56 -22.5t22 -59.5z" />
    <glyph glyph-name="Ncaron" unicode="&#x147;" horiz-adv-x="642" 
d="M316 847l48 69h153v-15l-128 -153h-148l-125 153v15h151zM233 0h-173v706h54l295 -340v334h173v-705h-50l-299 346v-341z" />
    <glyph glyph-name="ncaron" unicode="&#x148;" horiz-adv-x="642" 
d="M316 847l48 69h153v-15l-128 -153h-148l-125 153v15h151zM233 0h-173v706h54l295 -340v334h173v-705h-50l-299 346v-341z" />
    <glyph glyph-name="napostrophe" unicode="&#x149;" horiz-adv-x="642" 
d="M233 0h-173v706h54l295 -340v334h173v-705h-50l-299 346v-341z" />
    <glyph glyph-name="Eng" unicode="&#x14a;" horiz-adv-x="642" 
d="M370 -191l5 122q39 -4 52 9.5t13 62.5v90l-207 247v-340h-173v703h54l295 -345v342h173v-699q0 -170 -87 -194q-47 -12 -125 2z" />
    <glyph glyph-name="eng" unicode="&#x14b;" horiz-adv-x="642" 
d="M370 -191l5 122q39 -4 52 9.5t13 62.5v90l-207 247v-340h-173v703h54l295 -345v342h173v-699q0 -170 -87 -194q-47 -12 -125 2z" />
    <glyph glyph-name="Omacron" unicode="&#x14c;" horiz-adv-x="674" 
d="M479 897v-125h-288v125h288zM643 350q0 -162 -84 -261t-221 -99q-138 0 -222.5 99t-84.5 261t84.5 261t222.5 99q137 0 221 -99t84 -261zM203 350q0 -84 37 -136.5t98 -52.5q59 0 95 52.5t36 136.5t-36 136t-95 52q-61 0 -98 -52t-37 -136z" />
    <glyph glyph-name="omacron" unicode="&#x14d;" horiz-adv-x="674" 
d="M479 897v-125h-288v125h288zM643 350q0 -162 -84 -261t-221 -99q-138 0 -222.5 99t-84.5 261t84.5 261t222.5 99q137 0 221 -99t84 -261zM203 350q0 -84 37 -136.5t98 -52.5q59 0 95 52.5t36 136.5t-36 136t-95 52q-61 0 -98 -52t-37 -136z" />
    <glyph glyph-name="Obreve" unicode="&#x14e;" horiz-adv-x="674" 
d="M148 938h135q2 -22 16 -36t35 -15q21 0 35 14t16 37h133q0 -81 -51 -130.5t-135 -49.5q-80 0 -131 49.5t-53 130.5zM643 350q0 -162 -84 -261t-221 -99q-138 0 -222.5 99t-84.5 261t84.5 261t222.5 99q137 0 221 -99t84 -261zM203 350q0 -84 37 -136.5t98 -52.5
q59 0 95 52.5t36 136.5t-36 136t-95 52q-61 0 -98 -52t-37 -136z" />
    <glyph glyph-name="obreve" unicode="&#x14f;" horiz-adv-x="674" 
d="M148 938h135q2 -22 16 -36t35 -15q21 0 35 14t16 37h133q0 -81 -51 -130.5t-135 -49.5q-80 0 -131 49.5t-53 130.5zM643 350q0 -162 -84 -261t-221 -99q-138 0 -222.5 99t-84.5 261t84.5 261t222.5 99q137 0 221 -99t84 -261zM203 350q0 -84 37 -136.5t98 -52.5
q59 0 95 52.5t36 136.5t-36 136t-95 52q-61 0 -98 -52t-37 -136z" />
    <glyph glyph-name="Ohungarumlaut" unicode="&#x150;" horiz-adv-x="674" 
d="M244 946l143 -33v-8l-89 -149h-125v6zM449 932l142 -40v-7l-90 -129h-124v6zM643 350q0 -162 -84 -261t-221 -99q-138 0 -222.5 99t-84.5 261t84.5 261t222.5 99q137 0 221 -99t84 -261zM203 350q0 -84 37 -136.5t98 -52.5q59 0 95 52.5t36 136.5t-36 136t-95 52
q-61 0 -98 -52t-37 -136z" />
    <glyph glyph-name="ohungarumlaut" unicode="&#x151;" horiz-adv-x="674" 
d="M244 946l143 -33v-8l-89 -149h-125v6zM449 932l142 -40v-7l-90 -129h-124v6zM643 350q0 -162 -84 -261t-221 -99q-138 0 -222.5 99t-84.5 261t84.5 261t222.5 99q137 0 221 -99t84 -261zM203 350q0 -84 37 -136.5t98 -52.5q59 0 95 52.5t36 136.5t-36 136t-95 52
q-61 0 -98 -52t-37 -136z" />
    <glyph glyph-name="OE" unicode="&#x152;" horiz-adv-x="785" 
d="M745 0h-336q-36 -11 -82 -11q-133 0 -214.5 99t-81.5 260q0 165 84 264t221 97q41 0 76 -11h326v-149h-203v-110h183v-141h-183v-150h210v-148zM199 348q0 -94 39.5 -151t103.5 -57q27 0 48 10v388q-22 12 -50 12q-64 0 -102.5 -55.5t-38.5 -146.5z" />
    <glyph glyph-name="oe" unicode="&#x153;" horiz-adv-x="785" 
d="M745 0h-336q-36 -11 -82 -11q-133 0 -214.5 99t-81.5 260q0 165 84 264t221 97q41 0 76 -11h326v-149h-203v-110h183v-141h-183v-150h210v-148zM199 348q0 -94 39.5 -151t103.5 -57q27 0 48 10v388q-22 12 -50 12q-64 0 -102.5 -55.5t-38.5 -146.5z" />
    <glyph glyph-name="Racute" unicode="&#x154;" horiz-adv-x="596" 
d="M198 764l68 181l141 -56v-15l-86 -126h-123v16zM579 1h-189l-90 219h-66v-219h-173v699h247q106 0 171 -68t65 -179q-2 -128 -84 -189l119 -254v-9zM231 369h76q32 0 51 24t19 64q0 38 -19.5 61.5t-50.5 23.5h-76v-173z" />
    <glyph glyph-name="racute" unicode="&#x155;" horiz-adv-x="596" 
d="M198 764l68 181l141 -56v-15l-86 -126h-123v16zM579 1h-189l-90 219h-66v-219h-173v699h247q106 0 171 -68t65 -179q-2 -128 -84 -189l119 -254v-9zM231 369h76q32 0 51 24t19 64q0 38 -19.5 61.5t-50.5 23.5h-76v-173z" />
    <glyph glyph-name="Rcommaaccent" unicode="&#x156;" horiz-adv-x="596" 
d="M579 1h-189l-90 219h-66v-219h-173v699h247q106 0 171 -68t65 -179q-2 -128 -84 -189l119 -254v-9zM231 369h76q32 0 51 24t19 64q0 38 -19.5 61.5t-50.5 23.5h-76v-173zM389 -114q0 -16 -4 -31l-38 -123h-80l21 75q-24 8 -40 29.5t-16 49.5q0 36 22.5 59t56.5 23
t56 -22.5t22 -59.5z" />
    <glyph glyph-name="rcommaaccent" unicode="&#x157;" horiz-adv-x="596" 
d="M579 1h-189l-90 219h-66v-219h-173v699h247q106 0 171 -68t65 -179q-2 -128 -84 -189l119 -254v-9zM231 369h76q32 0 51 24t19 64q0 38 -19.5 61.5t-50.5 23.5h-76v-173zM389 -114q0 -16 -4 -31l-38 -123h-80l21 75q-24 8 -40 29.5t-16 49.5q0 36 22.5 59t56.5 23
t56 -22.5t22 -59.5z" />
    <glyph glyph-name="Rcaron" unicode="&#x158;" horiz-adv-x="596" 
d="M274 848l46 69h150v-16l-119 -150h-155l-119 150v16h148zM579 1h-189l-90 219h-66v-219h-173v699h247q106 0 171 -68t65 -179q-2 -128 -84 -189l119 -254v-9zM231 369h76q32 0 51 24t19 64q0 38 -19.5 61.5t-50.5 23.5h-76v-173z" />
    <glyph glyph-name="rcaron" unicode="&#x159;" horiz-adv-x="596" 
d="M274 848l46 69h150v-16l-119 -150h-155l-119 150v16h148zM579 1h-189l-90 219h-66v-219h-173v699h247q106 0 171 -68t65 -179q-2 -128 -84 -189l119 -254v-9zM231 369h76q32 0 51 24t19 64q0 38 -19.5 61.5t-50.5 23.5h-76v-173z" />
    <glyph glyph-name="Sacute" unicode="&#x15a;" horiz-adv-x="553" 
d="M197 773l70 181l144 -56v-15l-89 -126h-125v16zM33 221h164q-1 -32 21 -52.5t58 -20.5q35 0 56 16.5t21 46.5q0 16 -7.5 28t-16 18t-25 10.5t-24.5 5.5t-24 2q-92 7 -155 59t-63 154t64 162t170 60t169.5 -63t60.5 -166h-162q2 32 -16 52t-49 20t-49 -17t-18 -47
q0 -50 77 -60q54 -5 92 -16t74 -34.5t54.5 -66t18.5 -103.5q0 -100 -67.5 -159.5t-178.5 -59.5q-113 0 -180.5 63.5t-64.5 167.5z" />
    <glyph glyph-name="sacute" unicode="&#x15b;" horiz-adv-x="553" 
d="M197 773l70 181l144 -56v-15l-89 -126h-125v16zM33 221h164q-1 -32 21 -52.5t58 -20.5q35 0 56 16.5t21 46.5q0 16 -7.5 28t-16 18t-25 10.5t-24.5 5.5t-24 2q-92 7 -155 59t-63 154t64 162t170 60t169.5 -63t60.5 -166h-162q2 32 -16 52t-49 20t-49 -17t-18 -47
q0 -50 77 -60q54 -5 92 -16t74 -34.5t54.5 -66t18.5 -103.5q0 -100 -67.5 -159.5t-178.5 -59.5q-113 0 -180.5 63.5t-64.5 167.5z" />
    <glyph glyph-name="Scircumflex" unicode="&#x15c;" horiz-adv-x="553" 
d="M272 827l-51 -71h-153v16l124 156h162l123 -156v-16h-151zM33 221h164q-1 -32 21 -52.5t58 -20.5q35 0 56 16.5t21 46.5q0 16 -7.5 28t-16 18t-25 10.5t-24.5 5.5t-24 2q-92 7 -155 59t-63 154t64 162t170 60t169.5 -63t60.5 -166h-162q2 32 -16 52t-49 20t-49 -17
t-18 -47q0 -50 77 -60q54 -5 92 -16t74 -34.5t54.5 -66t18.5 -103.5q0 -100 -67.5 -159.5t-178.5 -59.5q-113 0 -180.5 63.5t-64.5 167.5z" />
    <glyph glyph-name="scircumflex" unicode="&#x15d;" horiz-adv-x="553" 
d="M272 827l-51 -71h-153v16l124 156h162l123 -156v-16h-151zM33 221h164q-1 -32 21 -52.5t58 -20.5q35 0 56 16.5t21 46.5q0 16 -7.5 28t-16 18t-25 10.5t-24.5 5.5t-24 2q-92 7 -155 59t-63 154t64 162t170 60t169.5 -63t60.5 -166h-162q2 32 -16 52t-49 20t-49 -17
t-18 -47q0 -50 77 -60q54 -5 92 -16t74 -34.5t54.5 -66t18.5 -103.5q0 -100 -67.5 -159.5t-178.5 -59.5q-113 0 -180.5 63.5t-64.5 167.5z" />
    <glyph glyph-name="Scedilla" unicode="&#x15e;" horiz-adv-x="553" 
d="M524 209q0 -83 -47.5 -139t-130.5 -73l-12 -55q61 -13 61 -79q0 -48 -23.5 -77t-65.5 -35q-34 -5 -72 3t-66 26l10 92q24 -16 42 -16q30 0 34 18q5 19 -13 29.5t-33 10.5l18 80q-91 14 -143.5 75t-49.5 152h164q-1 -32 21 -52.5t58 -20.5q35 0 56 16.5t21 46.5
q0 16 -7.5 28t-16 18t-25 10.5t-24.5 5.5t-24 2q-92 7 -155 59t-63 154t64 162t170 60t169.5 -63t60.5 -166h-162q2 32 -16 52t-49 20t-49 -17t-18 -47q0 -50 77 -60q54 -5 92 -16t74 -34.5t54.5 -66t18.5 -103.5z" />
    <glyph glyph-name="scedilla" unicode="&#x15f;" horiz-adv-x="553" 
d="M524 209q0 -83 -47.5 -139t-130.5 -73l-12 -55q61 -13 61 -79q0 -48 -23.5 -77t-65.5 -35q-34 -5 -72 3t-66 26l10 92q24 -16 42 -16q30 0 34 18q5 19 -13 29.5t-33 10.5l18 80q-91 14 -143.5 75t-49.5 152h164q-1 -32 21 -52.5t58 -20.5q35 0 56 16.5t21 46.5
q0 16 -7.5 28t-16 18t-25 10.5t-24.5 5.5t-24 2q-92 7 -155 59t-63 154t64 162t170 60t169.5 -63t60.5 -166h-162q2 32 -16 52t-49 20t-49 -17t-18 -47q0 -50 77 -60q54 -5 92 -16t74 -34.5t54.5 -66t18.5 -103.5z" />
    <glyph glyph-name="Scaron" unicode="&#x160;" horiz-adv-x="553" 
d="M278 847l47 69h150v-16l-120 -150h-155l-118 150v16h148zM33 221h164q-1 -32 21 -52.5t58 -20.5q35 0 56 16.5t21 46.5q0 16 -7.5 28t-16 18t-25 10.5t-24.5 5.5t-24 2q-92 7 -155 59t-63 154t64 162t170 60t169.5 -63t60.5 -166h-162q2 32 -16 52t-49 20t-49 -17
t-18 -47q0 -50 77 -60q54 -5 92 -16t74 -34.5t54.5 -66t18.5 -103.5q0 -100 -67.5 -159.5t-178.5 -59.5q-113 0 -180.5 63.5t-64.5 167.5z" />
    <glyph glyph-name="scaron" unicode="&#x161;" horiz-adv-x="553" 
d="M278 847l47 69h150v-16l-120 -150h-155l-118 150v16h148zM33 221h164q-1 -32 21 -52.5t58 -20.5q35 0 56 16.5t21 46.5q0 16 -7.5 28t-16 18t-25 10.5t-24.5 5.5t-24 2q-92 7 -155 59t-63 154t64 162t170 60t169.5 -63t60.5 -166h-162q2 32 -16 52t-49 20t-49 -17
t-18 -47q0 -50 77 -60q54 -5 92 -16t74 -34.5t54.5 -66t18.5 -103.5q0 -100 -67.5 -159.5t-178.5 -59.5q-113 0 -180.5 63.5t-64.5 167.5z" />
    <glyph glyph-name="uni021A" unicode="&#x162;" horiz-adv-x="477" 
d="M15 700h447v-160h-140v-540h-167v540h-140v160zM289 -260h-93l17 69q-26 0 -43.5 21.5t-17.5 51.5q0 38 25 60.5t64 22.5q35 0 61 -21.5t26 -59.5t-39 -144z" />
    <glyph glyph-name="uni021A" unicode="&#x21a;" horiz-adv-x="477" 
d="M15 700h447v-160h-140v-540h-167v540h-140v160zM289 -260h-93l17 69q-26 0 -43.5 21.5t-17.5 51.5q0 38 25 60.5t64 22.5q35 0 61 -21.5t26 -59.5t-39 -144z" />
    <glyph glyph-name="uni021B" unicode="&#x163;" horiz-adv-x="477" 
d="M15 700h447v-160h-140v-540h-167v540h-140v160zM287 -260h-93l17 69q-26 0 -43.5 21.5t-17.5 51.5q0 38 25 60.5t64 22.5q35 0 61 -21.5t26 -59.5t-39 -144z" />
    <glyph glyph-name="uni021B" unicode="&#x21b;" horiz-adv-x="477" 
d="M15 700h447v-160h-140v-540h-167v540h-140v160zM287 -260h-93l17 69q-26 0 -43.5 21.5t-17.5 51.5q0 38 25 60.5t64 22.5q35 0 61 -21.5t26 -59.5t-39 -144z" />
    <glyph glyph-name="Tcaron" unicode="&#x164;" horiz-adv-x="473" 
d="M238 842l49 71h156v-16l-124 -156h-162l-123 156v16h154zM15 700h443v-160h-137v-540h-168v540h-138v160z" />
    <glyph glyph-name="tcaron" unicode="&#x165;" horiz-adv-x="473" 
d="M238 842l49 71h156v-16l-124 -156h-162l-123 156v16h154zM15 700h443v-160h-137v-540h-168v540h-138v160z" />
    <glyph glyph-name="Tbar" unicode="&#x166;" horiz-adv-x="472" 
d="M153 372v168h-140v160h447v-160h-140v-168h72v-115h-72v-257h-167v257h-76v115h76z" />
    <glyph glyph-name="tbar" unicode="&#x167;" horiz-adv-x="486" 
d="M160 372v168h-140v160h447v-160h-140v-168h72v-115h-72v-257h-167v257h-76v115h76z" />
    <glyph glyph-name="Utilde" unicode="&#x168;" horiz-adv-x="601" 
d="M207 759l-92 43q9 55 40 89t73 34q20 0 45 -10t43.5 -20.5t36 -16.5t29 3t16.5 36l98 -37q-16 -124 -113 -124q-17 0 -40 9.5t-41.5 19t-37 14.5t-33.5 -4t-24 -36zM301 -9q-110 0 -177.5 67t-67.5 177v465h173v-461q0 -39 20 -63t53 -24q32 0 51.5 24t19.5 63v461h172
v-465q0 -109 -67.5 -176.5t-176.5 -67.5z" />
    <glyph glyph-name="utilde" unicode="&#x169;" horiz-adv-x="601" 
d="M207 759l-92 43q9 55 40 89t73 34q20 0 45 -10t43.5 -20.5t36 -16.5t29 3t16.5 36l98 -37q-16 -124 -113 -124q-17 0 -40 9.5t-41.5 19t-37 14.5t-33.5 -4t-24 -36zM301 -9q-110 0 -177.5 67t-67.5 177v465h173v-461q0 -39 20 -63t53 -24q32 0 51.5 24t19.5 63v461h172
v-465q0 -109 -67.5 -176.5t-176.5 -67.5z" />
    <glyph glyph-name="Umacron" unicode="&#x16a;" horiz-adv-x="601" 
d="M443 902v-125h-289v125h289zM301 -9q-110 0 -177.5 67t-67.5 177v465h173v-461q0 -39 20 -63t53 -24q32 0 51.5 24t19.5 63v461h172v-465q0 -109 -67.5 -176.5t-176.5 -67.5z" />
    <glyph glyph-name="umacron" unicode="&#x16b;" horiz-adv-x="601" 
d="M443 902v-125h-289v125h289zM301 -9q-110 0 -177.5 67t-67.5 177v465h173v-461q0 -39 20 -63t53 -24q32 0 51.5 24t19.5 63v461h172v-465q0 -109 -67.5 -176.5t-176.5 -67.5z" />
    <glyph glyph-name="Ubreve" unicode="&#x16c;" horiz-adv-x="601" 
d="M115 925h135q2 -23 16 -36.5t35 -14.5q21 0 35 14t16 37h133q0 -81 -51 -130.5t-135 -49.5q-80 0 -131 49.5t-53 130.5zM301 -9q-110 0 -177.5 67t-67.5 177v465h173v-461q0 -39 20 -63t53 -24q32 0 51.5 24t19.5 63v461h172v-465q0 -109 -67.5 -176.5t-176.5 -67.5z" />
    <glyph glyph-name="ubreve" unicode="&#x16d;" horiz-adv-x="601" 
d="M115 925h135q2 -23 16 -36.5t35 -14.5q21 0 35 14t16 37h133q0 -81 -51 -130.5t-135 -49.5q-80 0 -131 49.5t-53 130.5zM301 -9q-110 0 -177.5 67t-67.5 177v465h173v-461q0 -39 20 -63t53 -24q32 0 51.5 24t19.5 63v461h172v-465q0 -109 -67.5 -176.5t-176.5 -67.5z" />
    <glyph glyph-name="Uring" unicode="&#x16e;" horiz-adv-x="601" 
d="M303 735q-57 0 -92 34t-35 89q0 57 34.5 91.5t91.5 34.5q56 0 89.5 -34.5t33.5 -91.5q0 -55 -33.5 -89t-88.5 -34zM263 858q0 -17 11 -27.5t28 -10.5q16 0 26 10.5t10 27.5q0 18 -9.5 28.5t-26.5 10.5t-28 -10.5t-11 -28.5zM301 -9q-110 0 -177.5 67t-67.5 177v465h173
v-461q0 -39 20 -63t53 -24q32 0 51.5 24t19.5 63v461h172v-465q0 -109 -67.5 -176.5t-176.5 -67.5z" />
    <glyph glyph-name="uring" unicode="&#x16f;" horiz-adv-x="601" 
d="M303 735q-57 0 -92 34t-35 89q0 57 34.5 91.5t91.5 34.5q56 0 89.5 -34.5t33.5 -91.5q0 -55 -33.5 -89t-88.5 -34zM263 858q0 -17 11 -27.5t28 -10.5q16 0 26 10.5t10 27.5q0 18 -9.5 28.5t-26.5 10.5t-28 -10.5t-11 -28.5zM301 -9q-110 0 -177.5 67t-67.5 177v465h173
v-461q0 -39 20 -63t53 -24q32 0 51.5 24t19.5 63v461h172v-465q0 -109 -67.5 -176.5t-176.5 -67.5z" />
    <glyph glyph-name="Uhungarumlaut" unicode="&#x170;" horiz-adv-x="601" 
d="M186 942l143 -33v-14l-80 -134h-125v15zM390 928l143 -40v-15l-80 -112h-125v15zM301 -9q-110 0 -177.5 67t-67.5 177v465h173v-461q0 -39 20 -63t53 -24q32 0 51.5 24t19.5 63v461h172v-465q0 -109 -67.5 -176.5t-176.5 -67.5z" />
    <glyph glyph-name="uhungarumlaut" unicode="&#x171;" horiz-adv-x="601" 
d="M186 942l143 -33v-14l-80 -134h-125v15zM390 928l143 -40v-15l-80 -112h-125v15zM301 -9q-110 0 -177.5 67t-67.5 177v465h173v-461q0 -39 20 -63t53 -24q32 0 51.5 24t19.5 63v461h172v-465q0 -109 -67.5 -176.5t-176.5 -67.5z" />
    <glyph glyph-name="Uogonek" unicode="&#x172;" horiz-adv-x="601" 
d="M417 16q-41 -34 -38 -79q1 -26 18 -37.5t40 -6.5q29 7 55 29l23 -106q-55 -45 -131 -42q-43 2 -79.5 24.5t-46.5 69.5q-13 63 36 123q-107 2 -172.5 69t-65.5 175v465h173v-461q0 -39 20 -63t53 -24q32 0 51.5 24t19.5 63v461h172v-465q0 -77 -33.5 -133.5t-94.5 -85.5z
" />
    <glyph glyph-name="uogonek" unicode="&#x173;" horiz-adv-x="601" 
d="M417 16q-41 -34 -38 -79q1 -26 18 -37.5t40 -6.5q29 7 55 29l23 -106q-55 -45 -131 -42q-43 2 -79.5 24.5t-46.5 69.5q-13 63 36 123q-107 2 -172.5 69t-65.5 175v465h173v-461q0 -39 20 -63t53 -24q32 0 51.5 24t19.5 63v461h172v-465q0 -77 -33.5 -133.5t-94.5 -85.5z
" />
    <glyph glyph-name="Wcircumflex" unicode="&#x174;" horiz-adv-x="868" 
d="M437 827l-52 -71h-153v16l125 156h161l124 -156v-16h-151zM590 305h2q10 80 37 204l54 191h180v-7l-203 -700h-117l-107 320h-3l-102 -320h-122l-203 699v8h180l55 -191q29 -120 40 -204h2l101 383h112z" />
    <glyph glyph-name="wcircumflex" unicode="&#x175;" horiz-adv-x="868" 
d="M437 827l-52 -71h-153v16l125 156h161l124 -156v-16h-151zM590 305h2q10 80 37 204l54 191h180v-7l-203 -700h-117l-107 320h-3l-102 -320h-122l-203 699v8h180l55 -191q29 -120 40 -204h2l101 383h112z" />
    <glyph glyph-name="Ycircumflex" unicode="&#x176;" horiz-adv-x="563" 
d="M275 826l-47 -71h-158v16l125 156h161l124 -156v-16h-156zM280 438h2q19 78 38 123l60 139h183v-10l-195 -423v-267h-173v267l-197 423v10h185l59 -139q14 -34 38 -123z" />
    <glyph glyph-name="ycircumflex" unicode="&#x177;" horiz-adv-x="563" 
d="M275 826l-47 -71h-158v16l125 156h161l124 -156v-16h-156zM280 438h2q19 78 38 123l60 139h183v-10l-195 -423v-267h-173v267l-197 423v10h185l59 -139q14 -34 38 -123z" />
    <glyph glyph-name="Ydieresis" unicode="&#x178;" horiz-adv-x="563" 
d="M162 748q-36 0 -62 22.5t-26 62.5t25 63t63 23q36 0 61.5 -23.5t25.5 -62.5q0 -38 -25.5 -61.5t-61.5 -23.5zM396 748q-34 0 -61 23t-27 62t25.5 62.5t62.5 23.5q36 0 61 -23.5t25 -62.5q0 -38 -25 -61.5t-61 -23.5zM280 438h2q19 78 38 123l60 139h183v-10l-195 -423
v-267h-173v267l-197 423v10h185l59 -139q14 -34 38 -123z" />
    <glyph glyph-name="Zacute" unicode="&#x179;" horiz-adv-x="522" 
d="M185 768l73 181l149 -56v-15l-92 -126h-130v16zM270 163h222v-163h-473v26l219 515h-199v159h451v-27z" />
    <glyph glyph-name="zacute" unicode="&#x17a;" horiz-adv-x="522" 
d="M185 768l73 181l149 -56v-15l-92 -126h-130v16zM270 163h222v-163h-473v26l219 515h-199v159h451v-27z" />
    <glyph glyph-name="Zdotaccent" unicode="&#x17b;" horiz-adv-x="522" 
d="M262 748q-40 0 -67 25t-27 66t26.5 66.5t67.5 25.5q40 0 66 -25t26 -67q0 -41 -26 -66t-66 -25zM270 163h222v-163h-473v26l219 515h-199v159h451v-27z" />
    <glyph glyph-name="zdotaccent" unicode="&#x17c;" horiz-adv-x="522" 
d="M262 748q-40 0 -67 25t-27 66t26.5 66.5t67.5 25.5q40 0 66 -25t26 -67q0 -41 -26 -66t-66 -25zM270 163h222v-163h-473v26l219 515h-199v159h451v-27z" />
    <glyph glyph-name="Zcaron" unicode="&#x17d;" horiz-adv-x="522" 
d="M267 853l49 71h156v-16l-124 -156h-162l-123 156v16h154zM270 163h222v-163h-473v26l219 515h-199v159h451v-27z" />
    <glyph glyph-name="zcaron" unicode="&#x17e;" horiz-adv-x="522" 
d="M267 853l49 71h156v-16l-124 -156h-162l-123 156v16h154zM270 163h222v-163h-473v26l219 515h-199v159h451v-27z" />
    <glyph glyph-name="longs" unicode="&#x17f;" horiz-adv-x="295" 
d="M20 362v120h69v51q0 109 46.5 156.5t131.5 45.5q61 -2 114 -27l-27 -112q-29 12 -52 12q-30 0 -42 -26t-12 -56v-526h-162v362h-66z" />
    <glyph glyph-name="florin" unicode="&#x192;" 
d="M449 489l-96 -115l-99 115l-26 -27l100 -116l-98 -113l26 -27l95 113l97 -112l26 28l-96 112l98 115zM50 347q0 125 88.5 214t213.5 89t214 -89t89 -214t-89 -213.5t-214 -88.5t-213.5 88.5t-88.5 213.5z" />
    <glyph glyph-name="Aringacute" unicode="&#x1fa;" horiz-adv-x="615" 
d="M240 894l66 137l143 -43v-11l-82 -95h-127v12zM618 0h-179l-31 87h-199l-31 -87h-181v11l244 634q-55 36 -55 106q0 51 35 83.5t91 32.5q55 0 89 -32.5t34 -83.5q0 -73 -57 -109l240 -631v-11zM277 749q0 -15 9.5 -24.5t25.5 -9.5q15 0 24 9.5t9 24.5q0 16 -9 26t-24 10
q-16 0 -25.5 -10t-9.5 -26zM356 233l-17 47q-13 38 -31 132q-23 -111 -30 -133l-16 -46h94z" />
    <glyph glyph-name="aringacute" unicode="&#x1fb;" horiz-adv-x="615" 
d="M240 894l66 137l143 -43v-11l-82 -95h-127v12zM618 0h-179l-31 87h-199l-31 -87h-181v11l244 634q-55 36 -55 106q0 51 35 83.5t91 32.5q55 0 89 -32.5t34 -83.5q0 -73 -57 -109l240 -631v-11zM277 749q0 -15 9.5 -24.5t25.5 -9.5q15 0 24 9.5t9 24.5q0 16 -9 26t-24 10
q-16 0 -25.5 -10t-9.5 -26zM356 233l-17 47q-13 38 -31 132q-23 -111 -30 -133l-16 -46h94z" />
    <glyph glyph-name="AEacute" unicode="&#x1fc;" horiz-adv-x="716" 
d="M339 765l74 181l149 -56v-15l-93 -126h-130v16zM1 0v27l256 671h412v-159h-186v-100h165v-151h-165v-130h192v-158h-338v153h-124l-47 -153h-165zM337 302l6 242h-1l-76 -242h71z" />
    <glyph glyph-name="aeacute" unicode="&#x1fd;" horiz-adv-x="716" 
d="M339 765l74 181l149 -56v-15l-93 -126h-130v16zM1 0v27l256 671h412v-159h-186v-100h165v-151h-165v-130h192v-158h-338v153h-124l-47 -153h-165zM337 302l6 242h-1l-76 -242h71z" />
    <glyph glyph-name="Oslashacute" unicode="&#x1fe;" horiz-adv-x="672" 
d="M264 787l74 181l148 -56v-15l-92 -126h-130v16zM629 743l-69 -129q81 -97 81 -264q0 -170 -89.5 -266t-214.5 -96q-52 0 -88 16l-34 -68h-80h-80v19l66 125q-89 95 -89 270q0 87 26 157.5t69.5 114.5t97.5 67t113 23q54 0 97 -19l33 67h161v-17zM219 236l136 300
q-9 3 -18 3q-55 0 -93.5 -53t-38.5 -136q0 -60 14 -114zM460 455l-131 -292q18 -2 24 -2q14 0 26 3q52 13 70.5 59t18.5 127q0 57 -8 105z" />
    <glyph glyph-name="oslashacute" unicode="&#x1ff;" horiz-adv-x="674" 
d="M264 787l74 181l148 -56v-15l-92 -126h-130v16zM629 743l-69 -129q81 -97 81 -264q0 -170 -89.5 -266t-214.5 -96q-52 0 -88 16l-34 -68h-80h-80v19l66 125q-89 95 -89 270q0 87 26 157.5t69.5 114.5t97.5 67t113 23q54 0 97 -19l33 67h161v-17zM219 236l136 300
q-9 3 -18 3q-55 0 -93.5 -53t-38.5 -136q0 -60 14 -114zM460 455l-131 -292q18 -2 24 -2q14 0 26 3q52 13 70.5 59t18.5 127q0 57 -8 105z" />
    <glyph glyph-name="Scommaaccent" unicode="&#x218;" horiz-adv-x="553" 
d="M33 221h164q-1 -32 21 -52.5t58 -20.5q35 0 56 16.5t21 46.5q0 16 -7.5 28t-16 18t-25 10.5t-24.5 5.5t-24 2q-92 7 -155 59t-63 154t64 162t170 60t169.5 -63t60.5 -166h-162q2 32 -16 52t-49 20t-49 -17t-18 -47q0 -50 77 -60q54 -5 92 -16t74 -34.5t54.5 -66
t18.5 -103.5q0 -100 -67.5 -159.5t-178.5 -59.5q-113 0 -180.5 63.5t-64.5 167.5zM359 -117q0 -24 -10 -50l-32 -95h-76l21 73q-55 17 -55 72q0 37 26 57t60 19q29 -2 47.5 -22t18.5 -54z" />
    <glyph glyph-name="scommaaccent" unicode="&#x219;" horiz-adv-x="553" 
d="M33 221h164q-1 -32 21 -52.5t58 -20.5q35 0 56 16.5t21 46.5q0 16 -7.5 28t-16 18t-25 10.5t-24.5 5.5t-24 2q-92 7 -155 59t-63 154t64 162t170 60t169.5 -63t60.5 -166h-162q2 32 -16 52t-49 20t-49 -17t-18 -47q0 -50 77 -60q54 -5 92 -16t74 -34.5t54.5 -66
t18.5 -103.5q0 -100 -67.5 -159.5t-178.5 -59.5q-113 0 -180.5 63.5t-64.5 167.5zM359 -117q0 -24 -10 -50l-32 -95h-76l21 73q-55 17 -55 72q0 37 26 57t60 19q29 -2 47.5 -22t18.5 -54z" />
    <glyph glyph-name="circumflex" unicode="&#x2c6;" horiz-adv-x="451" 
d="M227 600l-47 -71h-157v16l124 156h162l123 -156v-16h-155z" />
    <glyph glyph-name="caron" unicode="&#x2c7;" horiz-adv-x="451" 
d="M224 630l49 71h156v-16l-124 -156h-162l-123 156v16h154z" />
    <glyph glyph-name="breve" unicode="&#x2d8;" horiz-adv-x="449" 
d="M41 700h135q2 -22 16 -36t35 -15q21 0 35 14t16 37h133q0 -81 -51 -130.5t-135 -49.5q-80 0 -131 49.5t-53 130.5z" />
    <glyph glyph-name="dotaccent" unicode="&#x2d9;" horiz-adv-x="273" 
d="M124 530q-40 0 -66.5 25t-26.5 66t26.5 66.5t66.5 25.5t66.5 -25t26.5 -67q0 -41 -26.5 -66t-66.5 -25z" />
    <glyph glyph-name="ring" unicode="&#x2da;" horiz-adv-x="322" 
d="M160 501q-57 0 -92 34t-35 89q0 57 34.5 91.5t91.5 34.5q56 0 89.5 -34.5t33.5 -91.5q0 -55 -33.5 -89t-88.5 -34zM120 624q0 -17 11 -27.5t28 -10.5q16 0 26 10.5t10 27.5q0 18 -9.5 28.5t-26.5 10.5t-28 -10.5t-11 -28.5z" />
    <glyph glyph-name="ogonek" unicode="&#x2db;" horiz-adv-x="309" 
d="M117 12l109 -5q-40 -13 -63 -42.5t-14 -57.5q12 -28 47 -25.5t56 21.5l22 -93q-54 -42 -123 -39q-39 2 -72 25.5t-41 67.5t13 84.5t66 63.5z" />
    <glyph glyph-name="tilde" unicode="&#x2dc;" horiz-adv-x="427" 
d="M113 547l-92 43q9 55 40 89t73 34q20 0 45 -10t43.5 -20.5t36 -16.5t29 3t16.5 36l98 -37q-16 -124 -113 -124q-17 0 -40 9.5t-41.5 19t-37 14.5t-33.5 -4t-24 -36z" />
    <glyph glyph-name="hungarumlaut" unicode="&#x2dd;" horiz-adv-x="440" 
d="M77 719l144 -33v-14l-80 -151h-125v15zM282 705l143 -40v-15l-80 -129h-125v15z" />
    <glyph glyph-name="uni0401" unicode="&#x401;" 
d="M449 489l-96 -115l-99 115l-26 -27l100 -116l-98 -113l26 -27l95 113l97 -112l26 28l-96 112l98 115zM50 347q0 125 88.5 214t213.5 89t214 -89t89 -214t-89 -213.5t-214 -88.5t-213.5 88.5t-88.5 213.5z" />
    <glyph glyph-name="uni0402" unicode="&#x402;" 
d="M449 489l-96 -115l-99 115l-26 -27l100 -116l-98 -113l26 -27l95 113l97 -112l26 28l-96 112l98 115zM50 347q0 125 88.5 214t213.5 89t214 -89t89 -214t-89 -213.5t-214 -88.5t-213.5 88.5t-88.5 213.5z" />
    <glyph glyph-name="uni0403" unicode="&#x403;" 
d="M449 489l-96 -115l-99 115l-26 -27l100 -116l-98 -113l26 -27l95 113l97 -112l26 28l-96 112l98 115zM50 347q0 125 88.5 214t213.5 89t214 -89t89 -214t-89 -213.5t-214 -88.5t-213.5 88.5t-88.5 213.5z" />
    <glyph glyph-name="uni0404" unicode="&#x404;" 
d="M449 489l-96 -115l-99 115l-26 -27l100 -116l-98 -113l26 -27l95 113l97 -112l26 28l-96 112l98 115zM50 347q0 125 88.5 214t213.5 89t214 -89t89 -214t-89 -213.5t-214 -88.5t-213.5 88.5t-88.5 213.5z" />
    <glyph glyph-name="uni0405" unicode="&#x405;" 
d="M449 489l-96 -115l-99 115l-26 -27l100 -116l-98 -113l26 -27l95 113l97 -112l26 28l-96 112l98 115zM50 347q0 125 88.5 214t213.5 89t214 -89t89 -214t-89 -213.5t-214 -88.5t-213.5 88.5t-88.5 213.5z" />
    <glyph glyph-name="uni0406" unicode="&#x406;" 
d="M449 489l-96 -115l-99 115l-26 -27l100 -116l-98 -113l26 -27l95 113l97 -112l26 28l-96 112l98 115zM50 347q0 125 88.5 214t213.5 89t214 -89t89 -214t-89 -213.5t-214 -88.5t-213.5 88.5t-88.5 213.5z" />
    <glyph glyph-name="uni0407" unicode="&#x407;" 
d="M449 489l-96 -115l-99 115l-26 -27l100 -116l-98 -113l26 -27l95 113l97 -112l26 28l-96 112l98 115zM50 347q0 125 88.5 214t213.5 89t214 -89t89 -214t-89 -213.5t-214 -88.5t-213.5 88.5t-88.5 213.5z" />
    <glyph glyph-name="uni0408" unicode="&#x408;" 
d="M449 489l-96 -115l-99 115l-26 -27l100 -116l-98 -113l26 -27l95 113l97 -112l26 28l-96 112l98 115zM50 347q0 125 88.5 214t213.5 89t214 -89t89 -214t-89 -213.5t-214 -88.5t-213.5 88.5t-88.5 213.5z" />
    <glyph glyph-name="uni0409" unicode="&#x409;" 
d="M449 489l-96 -115l-99 115l-26 -27l100 -116l-98 -113l26 -27l95 113l97 -112l26 28l-96 112l98 115zM50 347q0 125 88.5 214t213.5 89t214 -89t89 -214t-89 -213.5t-214 -88.5t-213.5 88.5t-88.5 213.5z" />
    <glyph glyph-name="uni040A" unicode="&#x40a;" 
d="M449 489l-96 -115l-99 115l-26 -27l100 -116l-98 -113l26 -27l95 113l97 -112l26 28l-96 112l98 115zM50 347q0 125 88.5 214t213.5 89t214 -89t89 -214t-89 -213.5t-214 -88.5t-213.5 88.5t-88.5 213.5z" />
    <glyph glyph-name="uni040B" unicode="&#x40b;" 
d="M449 489l-96 -115l-99 115l-26 -27l100 -116l-98 -113l26 -27l95 113l97 -112l26 28l-96 112l98 115zM50 347q0 125 88.5 214t213.5 89t214 -89t89 -214t-89 -213.5t-214 -88.5t-213.5 88.5t-88.5 213.5z" />
    <glyph glyph-name="uni040C" unicode="&#x40c;" 
d="M449 489l-96 -115l-99 115l-26 -27l100 -116l-98 -113l26 -27l95 113l97 -112l26 28l-96 112l98 115zM50 347q0 125 88.5 214t213.5 89t214 -89t89 -214t-89 -213.5t-214 -88.5t-213.5 88.5t-88.5 213.5z" />
    <glyph glyph-name="uni040E" unicode="&#x40e;" 
d="M449 489l-96 -115l-99 115l-26 -27l100 -116l-98 -113l26 -27l95 113l97 -112l26 28l-96 112l98 115zM50 347q0 125 88.5 214t213.5 89t214 -89t89 -214t-89 -213.5t-214 -88.5t-213.5 88.5t-88.5 213.5z" />
    <glyph glyph-name="uni040F" unicode="&#x40f;" 
d="M449 489l-96 -115l-99 115l-26 -27l100 -116l-98 -113l26 -27l95 113l97 -112l26 28l-96 112l98 115zM50 347q0 125 88.5 214t213.5 89t214 -89t89 -214t-89 -213.5t-214 -88.5t-213.5 88.5t-88.5 213.5z" />
    <glyph glyph-name="uni0410" unicode="&#x410;" horiz-adv-x="614" 
d="M617 0h-179l-31 87h-199l-31 -87h-181v11l269 699h86l266 -699v-11zM257 229h101q-34 105 -51 199q-20 -99 -50 -199z" />
    <glyph glyph-name="uni0411" unicode="&#x411;" horiz-adv-x="565" 
d="M230 449h86q102 0 164 -60.5t62 -158.5q0 -104 -62 -167t-164 -63h-255v700h434v-158h-265v-93zM230 160h85q26 0 42.5 19t16.5 50t-16.5 49.5t-42.5 18.5h-85v-137z" />
    <glyph glyph-name="uni0412" unicode="&#x412;" horiz-adv-x="580" 
d="M525 500q0 -37 -15.5 -74.5t-48.5 -58.5q87 -59 87 -162q0 -93 -57 -149t-152 -56h-278v700h256q94 0 151 -54.5t57 -145.5zM231 425h71q23 0 37 16t15 41q1 28 -13.5 45.5t-38.5 17.5h-71v-120zM231 157h94q22 0 37 16.5t15 43.5q0 28 -15 46t-37 18h-94v-124z" />
    <glyph glyph-name="uni0413" unicode="&#x413;" horiz-adv-x="448" 
d="M233 540v-540h-172v700h376v-160h-204z" />
    <glyph glyph-name="uni0414" unicode="&#x414;" horiz-adv-x="675" 
d="M152 700h425v-545h57v-244h-160v89h-289v-89h-158v244q45 0 60.5 18t20.5 71zM300 543l-25 -305q-2 -64 -30 -87h159v392h-104z" />
    <glyph glyph-name="uni0415" unicode="&#x415;" horiz-adv-x="485" 
d="M233 541v-100h186v-160h-186v-114h212v-167h-384v700h376v-159h-204z" />
    <glyph glyph-name="uni0416" unicode="&#x416;" horiz-adv-x="903" 
d="M694 0l-116 269q-34 -4 -41 -4v-265h-172v265q-9 0 -39 4l-118 -269h-195v17l162 323q-38 50 -66 189q-6 32 -26 42.5t-45 3.5v123q53 12 98.5 10.5t80 -34.5t44.5 -96q17 -112 56 -138q12 -12 48 -12v272h172v-272q37 0 49 12q36 25 56 138q10 63 44.5 96t80 34.5
t97.5 -10.5v-123q-24 7 -44 -3.5t-26 -42.5q-28 -137 -66 -189l162 -323v-17h-196z" />
    <glyph glyph-name="uni0417" unicode="&#x417;" horiz-adv-x="504" 
d="M194 523h-152q-4 92 51.5 139.5t142.5 47.5q92 0 148 -54.5t56 -145.5q0 -36 -16 -72t-45 -58q96 -54 96 -173q0 -99 -65 -158t-172 -59q-102 0 -159 60.5t-57 177.5h148q0 -40 19.5 -63.5t48.5 -23.5q30 0 48 20.5t18 56.5q0 33 -15.5 57t-47.5 24h-60v142h51
q26 0 39 19.5t13 45.5q0 31 -14 45.5t-34 14.5q-17 0 -29.5 -11t-12.5 -32z" />
    <glyph glyph-name="uni0418" unicode="&#x418;" horiz-adv-x="644" 
d="M61 -5v705h173v-332l295 338h54v-706h-173v349l-298 -354h-51z" />
    <glyph glyph-name="uni0419" unicode="&#x419;" horiz-adv-x="644" 
d="M198 904l89 11q0 -23 16 -35.5t42 -12.5t44 12.5t21 35.5l89 -11q-1 -73 -43.5 -115.5t-108.5 -42.5t-107 42t-42 116zM61 -5v705h173v-332l295 338h54v-706h-173v349l-298 -354h-51z" />
    <glyph glyph-name="uni041A" unicode="&#x41a;" horiz-adv-x="623" 
d="M234 700v-274q60 0 77 11t26 39t24 103q14 72 68 108t154 12v-123q-52 5 -64 -50q-29 -128 -71 -186q9 -18 69 -135t93 -178v-27h-196l-118 270q-14 -3 -62 -3v-267h-173v700h173z" />
    <glyph glyph-name="uni041B" unicode="&#x41b;" horiz-adv-x="627" 
d="M285 537l-19 -321q-8 -102 -33.5 -151t-79.5 -63.5t-143 2.5l3 131q48 -5 63 12t20 75l38 478h432v-700h-172v537h-109z" />
    <glyph glyph-name="uni041C" unicode="&#x41c;" horiz-adv-x="712" 
d="M651 704v-704h-173v317l-113 -150h-19l-112 150v-317h-173v704h61l234 -303l234 303h61z" />
    <glyph glyph-name="uni041D" unicode="&#x41d;" horiz-adv-x="626" 
d="M392 280h-158v-280h-173v700h173v-253h158v253h173v-700h-173v280z" />
    <glyph glyph-name="uni041E" unicode="&#x41e;" horiz-adv-x="674" 
d="M643 350q0 -162 -84 -261t-221 -99q-138 0 -222.5 99t-84.5 261t84.5 261t222.5 99q137 0 221 -99t84 -261zM203 350q0 -84 37 -136.5t98 -52.5q59 0 95 52.5t36 136.5t-36 136t-95 52q-61 0 -98 -52t-37 -136z" />
    <glyph glyph-name="uni041F" unicode="&#x41f;" horiz-adv-x="625" 
d="M564 0h-173v540h-157v-540h-173v700h503v-700z" />
    <glyph glyph-name="uni0420" unicode="&#x420;" horiz-adv-x="562" 
d="M61 700h248q109 0 173.5 -72t60.5 -190q0 -115 -64 -183.5t-170 -68.5h-75v-185h-173v699zM231 341h78q31 0 50 28t19 74q0 44 -19 71.5t-50 27.5h-78v-201z" />
    <glyph glyph-name="uni0421" unicode="&#x421;" horiz-adv-x="645" 
d="M31 349q0 163 83.5 262t220.5 99q103 0 186 -68.5t97 -199.5h-166q-26 103 -117 103q-59 0 -95.5 -53.5t-36.5 -141.5q0 -86 36.5 -139t96.5 -53q46 0 77 28t40 83h167q-10 -95 -55 -159.5t-103.5 -91.5t-126.5 -27q-137 0 -220.5 98.5t-83.5 259.5z" />
    <glyph glyph-name="uni0422" unicode="&#x422;" horiz-adv-x="473" 
d="M15 700h443v-160h-137v-540h-168v540h-138v160z" />
    <glyph glyph-name="uni0423" unicode="&#x423;" horiz-adv-x="561" 
d="M0 687v13h190l68 -168q17 -56 32 -142h2q8 66 29 142l61 168h186v-9l-204 -526q-34 -88 -79 -131t-111 -44q-60 -2 -130 27l23 128q31 -14 54 -14t36 14t27 50l18 50z" />
    <glyph glyph-name="uni0424" unicode="&#x424;" horiz-adv-x="756" 
d="M298 -2v72q-125 4 -201.5 81.5t-76.5 199.5q0 121 76 199t201 84v69h162v-69q124 -5 200.5 -83t76.5 -200t-76.5 -199.5t-201.5 -81.5v-72h-160zM193 351q0 -54 29.5 -89.5t77.5 -40.5v259q-48 -2 -77.5 -37.5t-29.5 -91.5zM563 351q0 56 -29.5 91.5t-77.5 37.5v-259
q48 5 77.5 40.5t29.5 89.5z" />
    <glyph glyph-name="uni0425" unicode="&#x425;" horiz-adv-x="588" 
d="M292 503h2q3 10 8 27.5t9.5 30t10.5 24.5l57 115h186v-6l-165 -323l188 -366v-5h-198l-61 130q-18 45 -34 108h-3q-20 -74 -37 -108l-59 -130h-196v5l188 366l-166 323v6h185l57 -115q11 -24 28 -82z" />
    <glyph glyph-name="uni0426" unicode="&#x426;" horiz-adv-x="646" 
d="M59 700h173v-535h145v535h174v-545h54v-234h-133v79h-413v700z" />
    <glyph glyph-name="uni0427" unicode="&#x427;" horiz-adv-x="563" 
d="M331 0v244q-147 -18 -225.5 54.5t-78.5 213.5v187h174v-187q0 -123 130 -99v286h171v-699h-171z" />
    <glyph glyph-name="uni0428" unicode="&#x428;" horiz-adv-x="884" 
d="M234 700v-535h122v535h173v-535h121v535h173v-700h-762v700h173z" />
    <glyph glyph-name="uni0429" unicode="&#x429;" horiz-adv-x="917" 
d="M233 700v-535h123v535h172v-535h122v535h172v-545h54v-234h-132v79h-685v700h174z" />
    <glyph glyph-name="uni042A" unicode="&#x42a;" horiz-adv-x="614" 
d="M287 489h75q105 0 169.5 -65t64.5 -173q0 -114 -63 -182.5t-171 -68.5h-248v547h-100v153h273v-211zM284 158h78q31 0 50 24t19 64q0 41 -19 66t-50 25h-78v-179z" />
    <glyph glyph-name="uni042B" unicode="&#x42b;" horiz-adv-x="853" 
d="M620 0v700h172v-700h-172zM234 699v-210h75q105 0 169.5 -65t64.5 -173q0 -114 -63 -182.5t-171 -68.5h-248v699h173zM231 337v-179h78q31 0 50 24t19 64q0 41 -19 66t-50 25h-78z" />
    <glyph glyph-name="uni042C" unicode="&#x42c;" horiz-adv-x="561" 
d="M234 699v-210h75q105 0 169.5 -65t64.5 -173q0 -114 -63 -182.5t-171 -68.5h-248v699h173zM231 337v-179h78q31 0 50 24t19 64q0 41 -19 66t-50 25h-78z" />
    <glyph glyph-name="uni042D" unicode="&#x42d;" horiz-adv-x="646" 
d="M315 545q-91 0 -119 -103h-166q14 131 97 199t188 68q57 0 109.5 -23t95.5 -66.5t69 -113.5t26 -156t-27 -156t-71.5 -113t-98 -66t-110.5 -23q-50 0 -96.5 16t-87 47.5t-68 86.5t-34.5 126h167q9 -55 41 -84t78 -28q40 0 74 31t49 86h-181v151h183q-11 57 -44 89t-74 32
z" />
    <glyph glyph-name="uni042E" unicode="&#x42e;" horiz-adv-x="940" 
d="M909 350q0 -88 -27 -159.5t-71 -115.5t-98 -67t-111 -23q-107 2 -193 79.5t-105 216.5h-72v-281h-173v700h173v-253h76q27 128 111.5 197.5t186.5 68.5q121 -2 212 -98t91 -265zM471 350q0 -90 40 -141t93 -51q52 0 92 51t40 141q0 88 -41 138t-93 50q-53 0 -92 -50
t-39 -138z" />
    <glyph glyph-name="uni042F" unicode="&#x42f;" horiz-adv-x="597" 
d="M18 10l119 254q-86 64 -88 196q0 108 66 174t174 66h247v-699h-173v219h-66l-90 -219h-189v9zM366 369v173h-76q-32 0 -51 -23.5t-19 -61.5q0 -40 19 -64t51 -24h76z" />
    <glyph glyph-name="uni0430" unicode="&#x430;" horiz-adv-x="614" 
d="M617 0h-179l-31 87h-199l-31 -87h-181v11l269 699h86l266 -699v-11zM257 229h101q-34 105 -51 199q-20 -99 -50 -199z" />
    <glyph glyph-name="uni0431" unicode="&#x431;" horiz-adv-x="565" 
d="M230 449h86q102 0 164 -60.5t62 -158.5q0 -104 -62 -167t-164 -63h-255v700h434v-158h-265v-93zM230 160h85q26 0 42.5 19t16.5 50t-16.5 49.5t-42.5 18.5h-85v-137z" />
    <glyph glyph-name="uni0432" unicode="&#x432;" horiz-adv-x="580" 
d="M525 500q0 -37 -15.5 -74.5t-48.5 -58.5q87 -59 87 -162q0 -93 -57 -149t-152 -56h-278v700h256q94 0 151 -54.5t57 -145.5zM231 425h71q23 0 37 16t15 41q1 28 -13.5 45.5t-38.5 17.5h-71v-120zM231 157h94q22 0 37 16.5t15 43.5q0 28 -15 46t-37 18h-94v-124z" />
    <glyph glyph-name="uni0433" unicode="&#x433;" horiz-adv-x="448" 
d="M233 540v-540h-172v700h376v-160h-204z" />
    <glyph glyph-name="uni0434" unicode="&#x434;" horiz-adv-x="637" 
d="M17 -87v242h55l200 555h86l205 -555h57v-242h-149v87h-304v-87h-150zM383 157l-38 128q-18 68 -31 141q-13 -75 -28 -141l-38 -128h135z" />
    <glyph glyph-name="uni0435" unicode="&#x435;" horiz-adv-x="485" 
d="M233 541v-100h186v-160h-186v-114h212v-167h-384v700h376v-159h-204z" />
    <glyph glyph-name="uni0436" unicode="&#x436;" horiz-adv-x="903" 
d="M694 0l-116 269q-34 -4 -41 -4v-265h-172v265q-9 0 -39 4l-118 -269h-195v17l162 323q-38 50 -66 189q-6 32 -26 42.5t-45 3.5v123q53 12 98.5 10.5t80 -34.5t44.5 -96q17 -112 56 -138q12 -12 48 -12v272h172v-272q37 0 49 12q36 25 56 138q10 63 44.5 96t80 34.5
t97.5 -10.5v-123q-24 7 -44 -3.5t-26 -42.5q-28 -137 -66 -189l162 -323v-17h-196z" />
    <glyph glyph-name="uni0437" unicode="&#x437;" horiz-adv-x="504" 
d="M194 523h-152q-4 92 51.5 139.5t142.5 47.5q92 0 148 -54.5t56 -145.5q0 -36 -16 -72t-45 -58q96 -54 96 -173q0 -99 -65 -158t-172 -59q-102 0 -159 60.5t-57 177.5h148q0 -40 19.5 -63.5t48.5 -23.5q30 0 48 20.5t18 56.5q0 33 -15.5 57t-47.5 24h-60v142h51
q26 0 39 19.5t13 45.5q0 31 -14 45.5t-34 14.5q-17 0 -29.5 -11t-12.5 -32z" />
    <glyph glyph-name="uni0438" unicode="&#x438;" horiz-adv-x="644" 
d="M61 -5v705h173v-332l295 338h54v-706h-173v349l-298 -354h-51z" />
    <glyph glyph-name="uni0439" unicode="&#x439;" horiz-adv-x="644" 
d="M198 904l89 11q0 -23 16 -35.5t42 -12.5t44 12.5t21 35.5l89 -11q-1 -73 -43.5 -115.5t-108.5 -42.5t-107 42t-42 116zM61 -5v705h173v-332l295 338h54v-706h-173v349l-298 -354h-51z" />
    <glyph glyph-name="uni043A" unicode="&#x43a;" horiz-adv-x="623" 
d="M234 700v-274q60 0 77 11t26 39t24 103q14 72 68 108t154 12v-123q-52 5 -64 -50q-29 -128 -71 -186q9 -18 69 -135t93 -178v-27h-196l-118 270q-14 -3 -62 -3v-267h-173v700h173z" />
    <glyph glyph-name="uni043B" unicode="&#x43b;" horiz-adv-x="632" 
d="M-5 0v6l276 704h89l279 -705v-5h-186l-84 234q-22 55 -53 179q-28 -115 -52 -179l-81 -234h-188z" />
    <glyph glyph-name="uni043C" unicode="&#x43c;" horiz-adv-x="712" 
d="M651 704v-704h-173v317l-113 -150h-19l-112 150v-317h-173v704h61l234 -303l234 303h61z" />
    <glyph glyph-name="uni043D" unicode="&#x43d;" horiz-adv-x="626" 
d="M392 280h-158v-280h-173v700h173v-253h158v253h173v-700h-173v280z" />
    <glyph glyph-name="uni043E" unicode="&#x43e;" horiz-adv-x="674" 
d="M643 350q0 -162 -84 -261t-221 -99q-138 0 -222.5 99t-84.5 261t84.5 261t222.5 99q137 0 221 -99t84 -261zM203 350q0 -84 37 -136.5t98 -52.5q59 0 95 52.5t36 136.5t-36 136t-95 52q-61 0 -98 -52t-37 -136z" />
    <glyph glyph-name="uni043F" unicode="&#x43f;" horiz-adv-x="625" 
d="M564 0h-173v540h-157v-540h-173v700h503v-700z" />
    <glyph glyph-name="uni0440" unicode="&#x440;" horiz-adv-x="562" 
d="M61 700h248q109 0 173.5 -72t60.5 -190q0 -115 -64 -183.5t-170 -68.5h-75v-185h-173v699zM231 341h78q31 0 50 28t19 74q0 44 -19 71.5t-50 27.5h-78v-201z" />
    <glyph glyph-name="uni0441" unicode="&#x441;" horiz-adv-x="645" 
d="M31 349q0 163 83.5 262t220.5 99q103 0 186 -68.5t97 -199.5h-166q-26 103 -117 103q-59 0 -95.5 -53.5t-36.5 -141.5q0 -86 36.5 -139t96.5 -53q46 0 77 28t40 83h167q-10 -95 -55 -159.5t-103.5 -91.5t-126.5 -27q-137 0 -220.5 98.5t-83.5 259.5z" />
    <glyph glyph-name="uni0442" unicode="&#x442;" horiz-adv-x="473" 
d="M15 700h443v-160h-137v-540h-168v540h-138v160z" />
    <glyph glyph-name="uni0443" unicode="&#x443;" horiz-adv-x="561" 
d="M0 687v13h190l68 -168q17 -56 32 -142h2q8 66 29 142l61 168h186v-9l-204 -526q-34 -88 -79 -131t-111 -44q-60 -2 -130 27l23 128q31 -14 54 -14t36 14t27 50l18 50z" />
    <glyph glyph-name="uni0444" unicode="&#x444;" horiz-adv-x="756" 
d="M298 -2v72q-125 4 -201.5 81.5t-76.5 199.5q0 121 76 199t201 84v69h162v-69q124 -5 200.5 -83t76.5 -200t-76.5 -199.5t-201.5 -81.5v-72h-160zM193 351q0 -54 29.5 -89.5t77.5 -40.5v259q-48 -2 -77.5 -37.5t-29.5 -91.5zM563 351q0 56 -29.5 91.5t-77.5 37.5v-259
q48 5 77.5 40.5t29.5 89.5z" />
    <glyph glyph-name="uni0445" unicode="&#x445;" horiz-adv-x="588" 
d="M292 503h2q3 10 8 27.5t9.5 30t10.5 24.5l57 115h186v-6l-165 -323l188 -366v-5h-198l-61 130q-18 45 -34 108h-3q-20 -74 -37 -108l-59 -130h-196v5l188 366l-166 323v6h185l57 -115q11 -24 28 -82z" />
    <glyph glyph-name="uni0446" unicode="&#x446;" horiz-adv-x="646" 
d="M59 700h173v-535h145v535h174v-545h54v-234h-133v79h-413v700z" />
    <glyph glyph-name="uni0447" unicode="&#x447;" horiz-adv-x="563" 
d="M331 0v244q-147 -18 -225.5 54.5t-78.5 213.5v187h174v-187q0 -123 130 -99v286h171v-699h-171z" />
    <glyph glyph-name="uni0448" unicode="&#x448;" horiz-adv-x="884" 
d="M234 700v-535h122v535h173v-535h121v535h173v-700h-762v700h173z" />
    <glyph glyph-name="uni0449" unicode="&#x449;" horiz-adv-x="917" 
d="M233 700v-535h123v535h172v-535h122v535h172v-545h54v-234h-132v79h-685v700h174z" />
    <glyph glyph-name="uni044A" unicode="&#x44a;" horiz-adv-x="614" 
d="M287 489h75q105 0 169.5 -65t64.5 -173q0 -114 -63 -182.5t-171 -68.5h-248v547h-100v153h273v-211zM284 158h78q31 0 50 24t19 64q0 41 -19 66t-50 25h-78v-179z" />
    <glyph glyph-name="uni044B" unicode="&#x44b;" horiz-adv-x="853" 
d="M620 0v700h172v-700h-172zM234 699v-210h75q105 0 169.5 -65t64.5 -173q0 -114 -63 -182.5t-171 -68.5h-248v699h173zM231 337v-179h78q31 0 50 24t19 64q0 41 -19 66t-50 25h-78z" />
    <glyph glyph-name="uni044C" unicode="&#x44c;" horiz-adv-x="561" 
d="M234 699v-210h75q105 0 169.5 -65t64.5 -173q0 -114 -63 -182.5t-171 -68.5h-248v699h173zM231 337v-179h78q31 0 50 24t19 64q0 41 -19 66t-50 25h-78z" />
    <glyph glyph-name="uni044D" unicode="&#x44d;" horiz-adv-x="646" 
d="M315 545q-91 0 -119 -103h-166q14 131 97 199t188 68q57 0 109.5 -23t95.5 -66.5t69 -113.5t26 -156t-27 -156t-71.5 -113t-98 -66t-110.5 -23q-50 0 -96.5 16t-87 47.5t-68 86.5t-34.5 126h167q9 -55 41 -84t78 -28q40 0 74 31t49 86h-181v151h183q-11 57 -44 89t-74 32
z" />
    <glyph glyph-name="uni044E" unicode="&#x44e;" horiz-adv-x="940" 
d="M909 350q0 -88 -27 -159.5t-71 -115.5t-98 -67t-111 -23q-107 2 -193 79.5t-105 216.5h-72v-281h-173v700h173v-253h76q27 128 111.5 197.5t186.5 68.5q121 -2 212 -98t91 -265zM471 350q0 -90 40 -141t93 -51q52 0 92 51t40 141q0 88 -41 138t-93 50q-53 0 -92 -50
t-39 -138z" />
    <glyph glyph-name="uni044F" unicode="&#x44f;" horiz-adv-x="597" 
d="M18 10l119 254q-86 64 -88 196q0 108 66 174t174 66h247v-699h-173v219h-66l-90 -219h-189v9zM366 369v173h-76q-32 0 -51 -23.5t-19 -61.5q0 -40 19 -64t51 -24h76z" />
    <glyph glyph-name="uni0451" unicode="&#x451;" 
d="M449 489l-96 -115l-99 115l-26 -27l100 -116l-98 -113l26 -27l95 113l97 -112l26 28l-96 112l98 115zM50 347q0 125 88.5 214t213.5 89t214 -89t89 -214t-89 -213.5t-214 -88.5t-213.5 88.5t-88.5 213.5z" />
    <glyph glyph-name="uni0452" unicode="&#x452;" 
d="M449 489l-96 -115l-99 115l-26 -27l100 -116l-98 -113l26 -27l95 113l97 -112l26 28l-96 112l98 115zM50 347q0 125 88.5 214t213.5 89t214 -89t89 -214t-89 -213.5t-214 -88.5t-213.5 88.5t-88.5 213.5z" />
    <glyph glyph-name="uni0453" unicode="&#x453;" 
d="M449 489l-96 -115l-99 115l-26 -27l100 -116l-98 -113l26 -27l95 113l97 -112l26 28l-96 112l98 115zM50 347q0 125 88.5 214t213.5 89t214 -89t89 -214t-89 -213.5t-214 -88.5t-213.5 88.5t-88.5 213.5z" />
    <glyph glyph-name="uni0454" unicode="&#x454;" 
d="M449 489l-96 -115l-99 115l-26 -27l100 -116l-98 -113l26 -27l95 113l97 -112l26 28l-96 112l98 115zM50 347q0 125 88.5 214t213.5 89t214 -89t89 -214t-89 -213.5t-214 -88.5t-213.5 88.5t-88.5 213.5z" />
    <glyph glyph-name="uni0455" unicode="&#x455;" 
d="M449 489l-96 -115l-99 115l-26 -27l100 -116l-98 -113l26 -27l95 113l97 -112l26 28l-96 112l98 115zM50 347q0 125 88.5 214t213.5 89t214 -89t89 -214t-89 -213.5t-214 -88.5t-213.5 88.5t-88.5 213.5z" />
    <glyph glyph-name="uni0456" unicode="&#x456;" 
d="M449 489l-96 -115l-99 115l-26 -27l100 -116l-98 -113l26 -27l95 113l97 -112l26 28l-96 112l98 115zM50 347q0 125 88.5 214t213.5 89t214 -89t89 -214t-89 -213.5t-214 -88.5t-213.5 88.5t-88.5 213.5z" />
    <glyph glyph-name="uni0457" unicode="&#x457;" 
d="M449 489l-96 -115l-99 115l-26 -27l100 -116l-98 -113l26 -27l95 113l97 -112l26 28l-96 112l98 115zM50 347q0 125 88.5 214t213.5 89t214 -89t89 -214t-89 -213.5t-214 -88.5t-213.5 88.5t-88.5 213.5z" />
    <glyph glyph-name="uni0458" unicode="&#x458;" 
d="M449 489l-96 -115l-99 115l-26 -27l100 -116l-98 -113l26 -27l95 113l97 -112l26 28l-96 112l98 115zM50 347q0 125 88.5 214t213.5 89t214 -89t89 -214t-89 -213.5t-214 -88.5t-213.5 88.5t-88.5 213.5z" />
    <glyph glyph-name="uni0459" unicode="&#x459;" 
d="M449 489l-96 -115l-99 115l-26 -27l100 -116l-98 -113l26 -27l95 113l97 -112l26 28l-96 112l98 115zM50 347q0 125 88.5 214t213.5 89t214 -89t89 -214t-89 -213.5t-214 -88.5t-213.5 88.5t-88.5 213.5z" />
    <glyph glyph-name="uni045A" unicode="&#x45a;" 
d="M449 489l-96 -115l-99 115l-26 -27l100 -116l-98 -113l26 -27l95 113l97 -112l26 28l-96 112l98 115zM50 347q0 125 88.5 214t213.5 89t214 -89t89 -214t-89 -213.5t-214 -88.5t-213.5 88.5t-88.5 213.5z" />
    <glyph glyph-name="uni045B" unicode="&#x45b;" 
d="M449 489l-96 -115l-99 115l-26 -27l100 -116l-98 -113l26 -27l95 113l97 -112l26 28l-96 112l98 115zM50 347q0 125 88.5 214t213.5 89t214 -89t89 -214t-89 -213.5t-214 -88.5t-213.5 88.5t-88.5 213.5z" />
    <glyph glyph-name="uni045C" unicode="&#x45c;" 
d="M449 489l-96 -115l-99 115l-26 -27l100 -116l-98 -113l26 -27l95 113l97 -112l26 28l-96 112l98 115zM50 347q0 125 88.5 214t213.5 89t214 -89t89 -214t-89 -213.5t-214 -88.5t-213.5 88.5t-88.5 213.5z" />
    <glyph glyph-name="uni045E" unicode="&#x45e;" 
d="M449 489l-96 -115l-99 115l-26 -27l100 -116l-98 -113l26 -27l95 113l97 -112l26 28l-96 112l98 115zM50 347q0 125 88.5 214t213.5 89t214 -89t89 -214t-89 -213.5t-214 -88.5t-213.5 88.5t-88.5 213.5z" />
    <glyph glyph-name="uni045F" unicode="&#x45f;" 
d="M449 489l-96 -115l-99 115l-26 -27l100 -116l-98 -113l26 -27l95 113l97 -112l26 28l-96 112l98 115zM50 347q0 125 88.5 214t213.5 89t214 -89t89 -214t-89 -213.5t-214 -88.5t-213.5 88.5t-88.5 213.5z" />
    <glyph glyph-name="uni0490" unicode="&#x490;" 
d="M449 489l-96 -115l-99 115l-26 -27l100 -116l-98 -113l26 -27l95 113l97 -112l26 28l-96 112l98 115zM50 347q0 125 88.5 214t213.5 89t214 -89t89 -214t-89 -213.5t-214 -88.5t-213.5 88.5t-88.5 213.5z" />
    <glyph glyph-name="uni0491" unicode="&#x491;" 
d="M449 489l-96 -115l-99 115l-26 -27l100 -116l-98 -113l26 -27l95 113l97 -112l26 28l-96 112l98 115zM50 347q0 125 88.5 214t213.5 89t214 -89t89 -214t-89 -213.5t-214 -88.5t-213.5 88.5t-88.5 213.5z" />
    <glyph glyph-name="Wgrave" unicode="&#x1e80;" horiz-adv-x="868" 
d="M383 752l-92 126v15l149 56l73 -181v-16h-130zM590 305h2q10 80 37 204l54 191h180v-7l-203 -700h-117l-107 320h-3l-102 -320h-122l-203 699v8h180l55 -191q29 -120 40 -204h2l101 383h112z" />
    <glyph glyph-name="wgrave" unicode="&#x1e81;" horiz-adv-x="868" 
d="M383 752l-92 126v15l149 56l73 -181v-16h-130zM590 305h2q10 80 37 204l54 191h180v-7l-203 -700h-117l-107 320h-3l-102 -320h-122l-203 699v8h180l55 -191q29 -120 40 -204h2l101 383h112z" />
    <glyph glyph-name="Wacute" unicode="&#x1e82;" horiz-adv-x="868" 
d="M358 766l74 181l148 -56v-15l-92 -126h-130v16zM590 305h2q10 80 37 204l54 191h180v-7l-203 -700h-117l-107 320h-3l-102 -320h-122l-203 699v8h180l55 -191q29 -120 40 -204h2l101 383h112z" />
    <glyph glyph-name="wacute" unicode="&#x1e83;" horiz-adv-x="868" 
d="M358 766l74 181l148 -56v-15l-92 -126h-130v16zM590 305h2q10 80 37 204l54 191h180v-7l-203 -700h-117l-107 320h-3l-102 -320h-122l-203 699v8h180l55 -191q29 -120 40 -204h2l101 383h112z" />
    <glyph glyph-name="Wdieresis" unicode="&#x1e84;" horiz-adv-x="868" 
d="M313 761q-36 0 -62 22.5t-26 62.5t25 63t63 23q36 0 61.5 -23.5t25.5 -62.5q0 -38 -25.5 -61.5t-61.5 -23.5zM567 761q-34 0 -61 23t-27 62t25.5 62.5t62.5 23.5q36 0 61.5 -23.5t25.5 -62.5q0 -38 -25 -61.5t-62 -23.5zM590 305h2q10 80 37 204l54 191h180v-7l-203 -700
h-117l-107 320h-3l-102 -320h-122l-203 699v8h180l55 -191q29 -120 40 -204h2l101 383h112z" />
    <glyph glyph-name="wdieresis" unicode="&#x1e85;" horiz-adv-x="868" 
d="M313 761q-36 0 -62 22.5t-26 62.5t25 63t63 23q36 0 61.5 -23.5t25.5 -62.5q0 -38 -25.5 -61.5t-61.5 -23.5zM567 761q-34 0 -61 23t-27 62t25.5 62.5t62.5 23.5q36 0 61.5 -23.5t25.5 -62.5q0 -38 -25 -61.5t-62 -23.5zM590 305h2q10 80 37 204l54 191h180v-7l-203 -700
h-117l-107 320h-3l-102 -320h-122l-203 699v8h180l55 -191q29 -120 40 -204h2l101 383h112z" />
    <glyph glyph-name="Ygrave" unicode="&#x1ef2;" horiz-adv-x="563" 
d="M221 748l-92 126v15l149 56l73 -181v-16h-130zM280 438h2q19 78 38 123l60 139h183v-10l-195 -423v-267h-173v267l-197 423v10h185l59 -139q14 -34 38 -123z" />
    <glyph glyph-name="ygrave" unicode="&#x1ef3;" horiz-adv-x="563" 
d="M221 748l-92 126v15l149 56l73 -181v-16h-130zM280 438h2q19 78 38 123l60 139h183v-10l-195 -423v-267h-173v267l-197 423v10h185l59 -139q14 -34 38 -123z" />
    <glyph glyph-name="endash" unicode="&#x2013;" 
d="M449 489l-96 -115l-99 115l-26 -27l100 -116l-98 -113l26 -27l95 113l97 -112l26 28l-96 112l98 115zM50 347q0 125 88.5 214t213.5 89t214 -89t89 -214t-89 -213.5t-214 -88.5t-213.5 88.5t-88.5 213.5z" />
    <glyph glyph-name="emdash" unicode="&#x2014;" 
d="M449 489l-96 -115l-99 115l-26 -27l100 -116l-98 -113l26 -27l95 113l97 -112l26 28l-96 112l98 115zM50 347q0 125 88.5 214t213.5 89t214 -89t89 -214t-89 -213.5t-214 -88.5t-213.5 88.5t-88.5 213.5z" />
    <glyph glyph-name="quoteleft" unicode="&#x2018;" 
d="M449 489l-96 -115l-99 115l-26 -27l100 -116l-98 -113l26 -27l95 113l97 -112l26 28l-96 112l98 115zM50 347q0 125 88.5 214t213.5 89t214 -89t89 -214t-89 -213.5t-214 -88.5t-213.5 88.5t-88.5 213.5z" />
    <glyph glyph-name="quoteright" unicode="&#x2019;" 
d="M449 489l-96 -115l-99 115l-26 -27l100 -116l-98 -113l26 -27l95 113l97 -112l26 28l-96 112l98 115zM50 347q0 125 88.5 214t213.5 89t214 -89t89 -214t-89 -213.5t-214 -88.5t-213.5 88.5t-88.5 213.5z" />
    <glyph glyph-name="quotesinglbase" unicode="&#x201a;" 
d="M449 489l-96 -115l-99 115l-26 -27l100 -116l-98 -113l26 -27l95 113l97 -112l26 28l-96 112l98 115zM50 347q0 125 88.5 214t213.5 89t214 -89t89 -214t-89 -213.5t-214 -88.5t-213.5 88.5t-88.5 213.5z" />
    <glyph glyph-name="quotedblleft" unicode="&#x201c;" 
d="M449 489l-96 -115l-99 115l-26 -27l100 -116l-98 -113l26 -27l95 113l97 -112l26 28l-96 112l98 115zM50 347q0 125 88.5 214t213.5 89t214 -89t89 -214t-89 -213.5t-214 -88.5t-213.5 88.5t-88.5 213.5z" />
    <glyph glyph-name="quotedblright" unicode="&#x201d;" 
d="M449 489l-96 -115l-99 115l-26 -27l100 -116l-98 -113l26 -27l95 113l97 -112l26 28l-96 112l98 115zM50 347q0 125 88.5 214t213.5 89t214 -89t89 -214t-89 -213.5t-214 -88.5t-213.5 88.5t-88.5 213.5z" />
    <glyph glyph-name="quotedblbase" unicode="&#x201e;" 
d="M449 489l-96 -115l-99 115l-26 -27l100 -116l-98 -113l26 -27l95 113l97 -112l26 28l-96 112l98 115zM50 347q0 125 88.5 214t213.5 89t214 -89t89 -214t-89 -213.5t-214 -88.5t-213.5 88.5t-88.5 213.5z" />
    <glyph glyph-name="dagger" unicode="&#x2020;" horiz-adv-x="411" 
d="M132 492v221h146v-221h105v-143h-105v-440h-146v440h-104v143h104z" />
    <glyph glyph-name="daggerdbl" unicode="&#x2021;" horiz-adv-x="446" 
d="M148 253v127h-109v140h109v193h146v-193h113v-140h-113v-127h113v-140h-113v-204h-146v204h-109v140h109z" />
    <glyph glyph-name="bullet" unicode="&#x2022;" 
d="M449 489l-96 -115l-99 115l-26 -27l100 -116l-98 -113l26 -27l95 113l97 -112l26 28l-96 112l98 115zM50 347q0 125 88.5 214t213.5 89t214 -89t89 -214t-89 -213.5t-214 -88.5t-213.5 88.5t-88.5 213.5z" />
    <glyph glyph-name="ellipsis" unicode="&#x2026;" 
d="M449 489l-96 -115l-99 115l-26 -27l100 -116l-98 -113l26 -27l95 113l97 -112l26 28l-96 112l98 115zM50 347q0 125 88.5 214t213.5 89t214 -89t89 -214t-89 -213.5t-214 -88.5t-213.5 88.5t-88.5 213.5z" />
    <glyph glyph-name="perthousand" unicode="&#x2030;" 
d="M449 489l-96 -115l-99 115l-26 -27l100 -116l-98 -113l26 -27l95 113l97 -112l26 28l-96 112l98 115zM50 347q0 125 88.5 214t213.5 89t214 -89t89 -214t-89 -213.5t-214 -88.5t-213.5 88.5t-88.5 213.5z" />
    <glyph glyph-name="guilsinglleft" unicode="&#x2039;" 
d="M449 489l-96 -115l-99 115l-26 -27l100 -116l-98 -113l26 -27l95 113l97 -112l26 28l-96 112l98 115zM50 347q0 125 88.5 214t213.5 89t214 -89t89 -214t-89 -213.5t-214 -88.5t-213.5 88.5t-88.5 213.5z" />
    <glyph glyph-name="guilsinglright" unicode="&#x203a;" 
d="M449 489l-96 -115l-99 115l-26 -27l100 -116l-98 -113l26 -27l95 113l97 -112l26 28l-96 112l98 115zM50 347q0 125 88.5 214t213.5 89t214 -89t89 -214t-89 -213.5t-214 -88.5t-213.5 88.5t-88.5 213.5z" />
    <glyph glyph-name="fraction" unicode="&#x2044;" horiz-adv-x="459" 
d="M470 729l-325 -789h-155l325 789h155z" />
    <glyph glyph-name="Euro" unicode="&#x20ac;" 
d="M449 489l-96 -115l-99 115l-26 -27l100 -116l-98 -113l26 -27l95 113l97 -112l26 28l-96 112l98 115zM50 347q0 125 88.5 214t213.5 89t214 -89t89 -214t-89 -213.5t-214 -88.5t-213.5 88.5t-88.5 213.5z" />
    <glyph glyph-name="uni2116" unicode="&#x2116;" horiz-adv-x="1135" 
d="M240 0h-173v703h54l295 -345v342h173v-702h-50l-299 343v-341zM1107 243q0 -113 -59.5 -182.5t-157.5 -70.5q-99 -1 -159.5 68.5t-60.5 184.5q0 112 60.5 180.5t159.5 68.5q97 0 157 -68.5t60 -180.5zM831 243q0 -48 16.5 -76.5t42.5 -27.5t42 29.5t16 74.5
q0 44 -16 71.5t-42 28.5t-42.5 -26.5t-16.5 -73.5z" />
    <glyph glyph-name="trademark" unicode="&#x2122;" 
d="M449 489l-96 -115l-99 115l-26 -27l100 -116l-98 -113l26 -27l95 113l97 -112l26 28l-96 112l98 115zM50 347q0 125 88.5 214t213.5 89t214 -89t89 -214t-89 -213.5t-214 -88.5t-213.5 88.5t-88.5 213.5z" />
    <glyph glyph-name="arrowleft" unicode="&#x2190;" 
d="M449 489l-96 -115l-99 115l-26 -27l100 -116l-98 -113l26 -27l95 113l97 -112l26 28l-96 112l98 115zM50 347q0 125 88.5 214t213.5 89t214 -89t89 -214t-89 -213.5t-214 -88.5t-213.5 88.5t-88.5 213.5z" />
    <glyph glyph-name="arrowup" unicode="&#x2191;" 
d="M449 489l-96 -115l-99 115l-26 -27l100 -116l-98 -113l26 -27l95 113l97 -112l26 28l-96 112l98 115zM50 347q0 125 88.5 214t213.5 89t214 -89t89 -214t-89 -213.5t-214 -88.5t-213.5 88.5t-88.5 213.5z" />
    <glyph glyph-name="arrowright" unicode="&#x2192;" 
d="M449 489l-96 -115l-99 115l-26 -27l100 -116l-98 -113l26 -27l95 113l97 -112l26 28l-96 112l98 115zM50 347q0 125 88.5 214t213.5 89t214 -89t89 -214t-89 -213.5t-214 -88.5t-213.5 88.5t-88.5 213.5z" />
    <glyph glyph-name="arrowdown" unicode="&#x2193;" 
d="M449 489l-96 -115l-99 115l-26 -27l100 -116l-98 -113l26 -27l95 113l97 -112l26 28l-96 112l98 115zM50 347q0 125 88.5 214t213.5 89t214 -89t89 -214t-89 -213.5t-214 -88.5t-213.5 88.5t-88.5 213.5z" />
    <glyph glyph-name="arrowboth" unicode="&#x2194;" 
d="M449 489l-96 -115l-99 115l-26 -27l100 -116l-98 -113l26 -27l95 113l97 -112l26 28l-96 112l98 115zM50 347q0 125 88.5 214t213.5 89t214 -89t89 -214t-89 -213.5t-214 -88.5t-213.5 88.5t-88.5 213.5z" />
    <glyph glyph-name="arrowupdn" unicode="&#x2195;" 
d="M449 489l-96 -115l-99 115l-26 -27l100 -116l-98 -113l26 -27l95 113l97 -112l26 28l-96 112l98 115zM50 347q0 125 88.5 214t213.5 89t214 -89t89 -214t-89 -213.5t-214 -88.5t-213.5 88.5t-88.5 213.5z" />
    <glyph glyph-name="uni2196" unicode="&#x2196;" 
d="M449 489l-96 -115l-99 115l-26 -27l100 -116l-98 -113l26 -27l95 113l97 -112l26 28l-96 112l98 115zM50 347q0 125 88.5 214t213.5 89t214 -89t89 -214t-89 -213.5t-214 -88.5t-213.5 88.5t-88.5 213.5z" />
    <glyph glyph-name="uni2197" unicode="&#x2197;" 
d="M449 489l-96 -115l-99 115l-26 -27l100 -116l-98 -113l26 -27l95 113l97 -112l26 28l-96 112l98 115zM50 347q0 125 88.5 214t213.5 89t214 -89t89 -214t-89 -213.5t-214 -88.5t-213.5 88.5t-88.5 213.5z" />
    <glyph glyph-name="uni2198" unicode="&#x2198;" 
d="M449 489l-96 -115l-99 115l-26 -27l100 -116l-98 -113l26 -27l95 113l97 -112l26 28l-96 112l98 115zM50 347q0 125 88.5 214t213.5 89t214 -89t89 -214t-89 -213.5t-214 -88.5t-213.5 88.5t-88.5 213.5z" />
    <glyph glyph-name="uni2199" unicode="&#x2199;" 
d="M449 489l-96 -115l-99 115l-26 -27l100 -116l-98 -113l26 -27l95 113l97 -112l26 28l-96 112l98 115zM50 347q0 125 88.5 214t213.5 89t214 -89t89 -214t-89 -213.5t-214 -88.5t-213.5 88.5t-88.5 213.5z" />
    <glyph glyph-name="minus" unicode="&#x2212;" horiz-adv-x="477" 
d="M426 426v-146h-375v146h375z" />
    <glyph glyph-name="CR" horiz-adv-x="186" 
 />
    <glyph glyph-name="_468" horiz-adv-x="0" 
 />
    <glyph glyph-name="_0127" 
d="M449 489l-96 -115l-99 115l-26 -27l100 -116l-98 -113l26 -27l95 113l97 -112l26 28l-96 112l98 115zM50 347q0 125 88.5 214t213.5 89t214 -89t89 -214t-89 -213.5t-214 -88.5t-213.5 88.5t-88.5 213.5z" />
    <glyph glyph-name="_0129" 
d="M449 489l-96 -115l-99 115l-26 -27l100 -116l-98 -113l26 -27l95 113l97 -112l26 28l-96 112l98 115zM50 347q0 125 88.5 214t213.5 89t214 -89t89 -214t-89 -213.5t-214 -88.5t-213.5 88.5t-88.5 213.5z" />
    </font>
</defs>
</svg>
